<?xml version="1.0" encoding="utf-8" standalone="no"?>
<!DOCTYPE svg PUBLIC "-//W3C//DTD SVG 1.1//EN"
  "http://www.w3.org/Graphics/SVG/1.1/DTD/svg11.dtd">
<!-- Created with matplotlib (http://matplotlib.org/) -->
<svg height="360pt" version="1.1" viewBox="0 0 490.475 360" width="490.475pt" xmlns="http://www.w3.org/2000/svg" xmlns:xlink="http://www.w3.org/1999/xlink">
 <defs>
  <style type="text/css">
*{stroke-linecap:butt;stroke-linejoin:round;}
  </style>
 </defs>
 <g id="figure_1">
  <g id="patch_1">
   <path d="M 0 360 
L 490.475 360 
L 490.475 0 
L 0 0 
z
" style="fill:#ffffff;"/>
  </g>
  <g id="axes_1">
   <g id="patch_2">
    <path d="M 70.855756 313.493125 
L 355.09525 313.493125 
L 355.09525 36 
L 70.855756 36 
z
" style="fill:#eaeaf2;"/>
   </g>
   <g id="matplotlib.axis_1">
    <g id="xtick_1">
     <g id="text_1">
      <!-- High Interest -->
      <defs>
       <path d="M 8.015625 0 
L 8.015625 71.578125 
L 17.484375 71.578125 
L 17.484375 42.1875 
L 54.6875 42.1875 
L 54.6875 71.578125 
L 64.15625 71.578125 
L 64.15625 0 
L 54.6875 0 
L 54.6875 33.734375 
L 17.484375 33.734375 
L 17.484375 0 
z
" id="ArialMT-48"/>
       <path d="M 6.640625 61.46875 
L 6.640625 71.578125 
L 15.4375 71.578125 
L 15.4375 61.46875 
z
M 6.640625 0 
L 6.640625 51.859375 
L 15.4375 51.859375 
L 15.4375 0 
z
" id="ArialMT-69"/>
       <path d="M 4.984375 -4.296875 
L 13.53125 -5.5625 
Q 14.0625 -9.515625 16.5 -11.328125 
Q 19.78125 -13.765625 25.4375 -13.765625 
Q 31.546875 -13.765625 34.859375 -11.328125 
Q 38.1875 -8.890625 39.359375 -4.5 
Q 40.046875 -1.8125 39.984375 6.78125 
Q 34.234375 0 25.640625 0 
Q 14.9375 0 9.078125 7.71875 
Q 3.21875 15.4375 3.21875 26.21875 
Q 3.21875 33.640625 5.90625 39.90625 
Q 8.59375 46.1875 13.6875 49.609375 
Q 18.796875 53.03125 25.6875 53.03125 
Q 34.859375 53.03125 40.828125 45.609375 
L 40.828125 51.859375 
L 48.921875 51.859375 
L 48.921875 7.03125 
Q 48.921875 -5.078125 46.453125 -10.125 
Q 44 -15.1875 38.640625 -18.109375 
Q 33.296875 -21.046875 25.484375 -21.046875 
Q 16.21875 -21.046875 10.5 -16.875 
Q 4.78125 -12.703125 4.984375 -4.296875 
z
M 12.25 26.859375 
Q 12.25 16.65625 16.296875 11.96875 
Q 20.359375 7.28125 26.46875 7.28125 
Q 32.515625 7.28125 36.609375 11.9375 
Q 40.71875 16.609375 40.71875 26.5625 
Q 40.71875 36.078125 36.5 40.90625 
Q 32.28125 45.75 26.3125 45.75 
Q 20.453125 45.75 16.34375 40.984375 
Q 12.25 36.234375 12.25 26.859375 
z
" id="ArialMT-67"/>
       <path d="M 6.59375 0 
L 6.59375 71.578125 
L 15.375 71.578125 
L 15.375 45.90625 
Q 21.53125 53.03125 30.90625 53.03125 
Q 36.671875 53.03125 40.921875 50.75 
Q 45.171875 48.484375 47 44.484375 
Q 48.828125 40.484375 48.828125 32.859375 
L 48.828125 0 
L 40.046875 0 
L 40.046875 32.859375 
Q 40.046875 39.453125 37.1875 42.453125 
Q 34.328125 45.453125 29.109375 45.453125 
Q 25.203125 45.453125 21.75 43.421875 
Q 18.3125 41.40625 16.84375 37.9375 
Q 15.375 34.46875 15.375 28.375 
L 15.375 0 
z
" id="ArialMT-68"/>
       <path id="ArialMT-20"/>
       <path d="M 9.328125 0 
L 9.328125 71.578125 
L 18.796875 71.578125 
L 18.796875 0 
z
" id="ArialMT-49"/>
       <path d="M 6.59375 0 
L 6.59375 51.859375 
L 14.5 51.859375 
L 14.5 44.484375 
Q 20.21875 53.03125 31 53.03125 
Q 35.6875 53.03125 39.625 51.34375 
Q 43.5625 49.65625 45.515625 46.921875 
Q 47.46875 44.1875 48.25 40.4375 
Q 48.734375 37.984375 48.734375 31.890625 
L 48.734375 0 
L 39.9375 0 
L 39.9375 31.546875 
Q 39.9375 36.921875 38.90625 39.578125 
Q 37.890625 42.234375 35.28125 43.8125 
Q 32.671875 45.40625 29.15625 45.40625 
Q 23.53125 45.40625 19.453125 41.84375 
Q 15.375 38.28125 15.375 28.328125 
L 15.375 0 
z
" id="ArialMT-6e"/>
       <path d="M 25.78125 7.859375 
L 27.046875 0.09375 
Q 23.34375 -0.6875 20.40625 -0.6875 
Q 15.625 -0.6875 12.984375 0.828125 
Q 10.359375 2.34375 9.28125 4.8125 
Q 8.203125 7.28125 8.203125 15.1875 
L 8.203125 45.015625 
L 1.765625 45.015625 
L 1.765625 51.859375 
L 8.203125 51.859375 
L 8.203125 64.703125 
L 16.9375 69.96875 
L 16.9375 51.859375 
L 25.78125 51.859375 
L 25.78125 45.015625 
L 16.9375 45.015625 
L 16.9375 14.703125 
Q 16.9375 10.9375 17.40625 9.859375 
Q 17.875 8.796875 18.921875 8.15625 
Q 19.96875 7.515625 21.921875 7.515625 
Q 23.390625 7.515625 25.78125 7.859375 
z
" id="ArialMT-74"/>
       <path d="M 42.09375 16.703125 
L 51.171875 15.578125 
Q 49.03125 7.625 43.21875 3.21875 
Q 37.40625 -1.171875 28.375 -1.171875 
Q 17 -1.171875 10.328125 5.828125 
Q 3.65625 12.84375 3.65625 25.484375 
Q 3.65625 38.578125 10.390625 45.796875 
Q 17.140625 53.03125 27.875 53.03125 
Q 38.28125 53.03125 44.875 45.953125 
Q 51.46875 38.875 51.46875 26.03125 
Q 51.46875 25.25 51.421875 23.6875 
L 12.75 23.6875 
Q 13.234375 15.140625 17.578125 10.59375 
Q 21.921875 6.0625 28.421875 6.0625 
Q 33.25 6.0625 36.671875 8.59375 
Q 40.09375 11.140625 42.09375 16.703125 
z
M 13.234375 30.90625 
L 42.1875 30.90625 
Q 41.609375 37.453125 38.875 40.71875 
Q 34.671875 45.796875 27.984375 45.796875 
Q 21.921875 45.796875 17.796875 41.75 
Q 13.671875 37.703125 13.234375 30.90625 
z
" id="ArialMT-65"/>
       <path d="M 6.5 0 
L 6.5 51.859375 
L 14.40625 51.859375 
L 14.40625 44 
Q 17.4375 49.515625 20 51.265625 
Q 22.5625 53.03125 25.640625 53.03125 
Q 30.078125 53.03125 34.671875 50.203125 
L 31.640625 42.046875 
Q 28.421875 43.953125 25.203125 43.953125 
Q 22.3125 43.953125 20.015625 42.21875 
Q 17.71875 40.484375 16.75 37.40625 
Q 15.28125 32.71875 15.28125 27.15625 
L 15.28125 0 
z
" id="ArialMT-72"/>
       <path d="M 3.078125 15.484375 
L 11.765625 16.84375 
Q 12.5 11.625 15.84375 8.84375 
Q 19.1875 6.0625 25.203125 6.0625 
Q 31.25 6.0625 34.171875 8.515625 
Q 37.109375 10.984375 37.109375 14.3125 
Q 37.109375 17.28125 34.515625 19 
Q 32.71875 20.171875 25.53125 21.96875 
Q 15.875 24.421875 12.140625 26.203125 
Q 8.40625 27.984375 6.46875 31.125 
Q 4.546875 34.28125 4.546875 38.09375 
Q 4.546875 41.546875 6.125 44.5 
Q 7.71875 47.46875 10.453125 49.421875 
Q 12.5 50.921875 16.03125 51.96875 
Q 19.578125 53.03125 23.640625 53.03125 
Q 29.734375 53.03125 34.34375 51.265625 
Q 38.96875 49.515625 41.15625 46.5 
Q 43.359375 43.5 44.1875 38.484375 
L 35.59375 37.3125 
Q 35.015625 41.3125 32.203125 43.546875 
Q 29.390625 45.796875 24.265625 45.796875 
Q 18.21875 45.796875 15.625 43.796875 
Q 13.03125 41.796875 13.03125 39.109375 
Q 13.03125 37.40625 14.109375 36.03125 
Q 15.1875 34.625 17.484375 33.6875 
Q 18.796875 33.203125 25.25 31.453125 
Q 34.578125 28.953125 38.25 27.359375 
Q 41.9375 25.78125 44.03125 22.75 
Q 46.140625 19.734375 46.140625 15.234375 
Q 46.140625 10.84375 43.578125 6.953125 
Q 41.015625 3.078125 36.171875 0.953125 
Q 31.34375 -1.171875 25.25 -1.171875 
Q 15.140625 -1.171875 9.84375 3.03125 
Q 4.546875 7.234375 3.078125 15.484375 
z
" id="ArialMT-73"/>
      </defs>
      <g style="fill:#262626;" transform="translate(113.566709 351.720152)rotate(-20)scale(0.11 -0.11)">
       <use xlink:href="#ArialMT-48"/>
       <use x="72.216797" xlink:href="#ArialMT-69"/>
       <use x="94.433594" xlink:href="#ArialMT-67"/>
       <use x="150.048828" xlink:href="#ArialMT-68"/>
       <use x="205.664062" xlink:href="#ArialMT-20"/>
       <use x="233.447266" xlink:href="#ArialMT-49"/>
       <use x="261.230469" xlink:href="#ArialMT-6e"/>
       <use x="316.845703" xlink:href="#ArialMT-74"/>
       <use x="344.628906" xlink:href="#ArialMT-65"/>
       <use x="400.244141" xlink:href="#ArialMT-72"/>
       <use x="433.544922" xlink:href="#ArialMT-65"/>
       <use x="489.160156" xlink:href="#ArialMT-73"/>
       <use x="539.160156" xlink:href="#ArialMT-74"/>
      </g>
     </g>
    </g>
    <g id="xtick_2">
     <g id="text_2">
      <!-- Normal Interest -->
      <defs>
       <path d="M 7.625 0 
L 7.625 71.578125 
L 17.328125 71.578125 
L 54.9375 15.375 
L 54.9375 71.578125 
L 64.015625 71.578125 
L 64.015625 0 
L 54.296875 0 
L 16.703125 56.25 
L 16.703125 0 
z
" id="ArialMT-4e"/>
       <path d="M 3.328125 25.921875 
Q 3.328125 40.328125 11.328125 47.265625 
Q 18.015625 53.03125 27.640625 53.03125 
Q 38.328125 53.03125 45.109375 46.015625 
Q 51.90625 39.015625 51.90625 26.65625 
Q 51.90625 16.65625 48.90625 10.90625 
Q 45.90625 5.171875 40.15625 2 
Q 34.421875 -1.171875 27.640625 -1.171875 
Q 16.75 -1.171875 10.03125 5.8125 
Q 3.328125 12.796875 3.328125 25.921875 
z
M 12.359375 25.921875 
Q 12.359375 15.96875 16.703125 11.015625 
Q 21.046875 6.0625 27.640625 6.0625 
Q 34.1875 6.0625 38.53125 11.03125 
Q 42.875 16.015625 42.875 26.21875 
Q 42.875 35.84375 38.5 40.796875 
Q 34.125 45.75 27.640625 45.75 
Q 21.046875 45.75 16.703125 40.8125 
Q 12.359375 35.890625 12.359375 25.921875 
z
" id="ArialMT-6f"/>
       <path d="M 6.59375 0 
L 6.59375 51.859375 
L 14.453125 51.859375 
L 14.453125 44.578125 
Q 16.890625 48.390625 20.9375 50.703125 
Q 25 53.03125 30.171875 53.03125 
Q 35.9375 53.03125 39.625 50.640625 
Q 43.3125 48.25 44.828125 43.953125 
Q 50.984375 53.03125 60.84375 53.03125 
Q 68.5625 53.03125 72.703125 48.75 
Q 76.859375 44.484375 76.859375 35.59375 
L 76.859375 0 
L 68.109375 0 
L 68.109375 32.671875 
Q 68.109375 37.9375 67.25 40.25 
Q 66.40625 42.578125 64.15625 43.984375 
Q 61.921875 45.40625 58.890625 45.40625 
Q 53.421875 45.40625 49.796875 41.765625 
Q 46.1875 38.140625 46.1875 30.125 
L 46.1875 0 
L 37.40625 0 
L 37.40625 33.6875 
Q 37.40625 39.546875 35.25 42.46875 
Q 33.109375 45.40625 28.21875 45.40625 
Q 24.515625 45.40625 21.359375 43.453125 
Q 18.21875 41.5 16.796875 37.734375 
Q 15.375 33.984375 15.375 26.90625 
L 15.375 0 
z
" id="ArialMT-6d"/>
       <path d="M 40.4375 6.390625 
Q 35.546875 2.25 31.03125 0.53125 
Q 26.515625 -1.171875 21.34375 -1.171875 
Q 12.796875 -1.171875 8.203125 3 
Q 3.609375 7.171875 3.609375 13.671875 
Q 3.609375 17.484375 5.34375 20.625 
Q 7.078125 23.78125 9.890625 25.6875 
Q 12.703125 27.59375 16.21875 28.5625 
Q 18.796875 29.25 24.03125 29.890625 
Q 34.671875 31.15625 39.703125 32.90625 
Q 39.75 34.71875 39.75 35.203125 
Q 39.75 40.578125 37.25 42.78125 
Q 33.890625 45.75 27.25 45.75 
Q 21.046875 45.75 18.09375 43.578125 
Q 15.140625 41.40625 13.71875 35.890625 
L 5.125 37.0625 
Q 6.296875 42.578125 8.984375 45.96875 
Q 11.671875 49.359375 16.75 51.1875 
Q 21.828125 53.03125 28.515625 53.03125 
Q 35.15625 53.03125 39.296875 51.46875 
Q 43.453125 49.90625 45.40625 47.53125 
Q 47.359375 45.171875 48.140625 41.546875 
Q 48.578125 39.3125 48.578125 33.453125 
L 48.578125 21.734375 
Q 48.578125 9.46875 49.140625 6.21875 
Q 49.703125 2.984375 51.375 0 
L 42.1875 0 
Q 40.828125 2.734375 40.4375 6.390625 
z
M 39.703125 26.03125 
Q 34.90625 24.078125 25.34375 22.703125 
Q 19.921875 21.921875 17.671875 20.9375 
Q 15.4375 19.96875 14.203125 18.09375 
Q 12.984375 16.21875 12.984375 13.921875 
Q 12.984375 10.40625 15.640625 8.0625 
Q 18.3125 5.71875 23.4375 5.71875 
Q 28.515625 5.71875 32.46875 7.9375 
Q 36.421875 10.15625 38.28125 14.015625 
Q 39.703125 17 39.703125 22.796875 
z
" id="ArialMT-61"/>
       <path d="M 6.390625 0 
L 6.390625 71.578125 
L 15.1875 71.578125 
L 15.1875 0 
z
" id="ArialMT-6c"/>
      </defs>
      <g style="fill:#262626;" transform="translate(249.682575 356.106667)rotate(-20)scale(0.11 -0.11)">
       <use xlink:href="#ArialMT-4e"/>
       <use x="72.216797" xlink:href="#ArialMT-6f"/>
       <use x="127.832031" xlink:href="#ArialMT-72"/>
       <use x="161.132812" xlink:href="#ArialMT-6d"/>
       <use x="244.433594" xlink:href="#ArialMT-61"/>
       <use x="300.048828" xlink:href="#ArialMT-6c"/>
       <use x="322.265625" xlink:href="#ArialMT-20"/>
       <use x="350.048828" xlink:href="#ArialMT-49"/>
       <use x="377.832031" xlink:href="#ArialMT-6e"/>
       <use x="433.447266" xlink:href="#ArialMT-74"/>
       <use x="461.230469" xlink:href="#ArialMT-65"/>
       <use x="516.845703" xlink:href="#ArialMT-72"/>
       <use x="550.146484" xlink:href="#ArialMT-65"/>
       <use x="605.761719" xlink:href="#ArialMT-73"/>
       <use x="655.761719" xlink:href="#ArialMT-74"/>
      </g>
     </g>
    </g>
    <g id="text_3">
     <!-- Level of Interest -->
     <defs>
      <path d="M 7.328125 0 
L 7.328125 71.578125 
L 16.796875 71.578125 
L 16.796875 8.453125 
L 52.046875 8.453125 
L 52.046875 0 
z
" id="ArialMT-4c"/>
      <path d="M 21 0 
L 1.265625 51.859375 
L 10.546875 51.859375 
L 21.6875 20.796875 
Q 23.484375 15.765625 25 10.359375 
Q 26.171875 14.453125 28.265625 20.21875 
L 39.796875 51.859375 
L 48.828125 51.859375 
L 29.203125 0 
z
" id="ArialMT-76"/>
      <path d="M 8.6875 0 
L 8.6875 45.015625 
L 0.921875 45.015625 
L 0.921875 51.859375 
L 8.6875 51.859375 
L 8.6875 57.375 
Q 8.6875 62.59375 9.625 65.140625 
Q 10.890625 68.5625 14.078125 70.671875 
Q 17.28125 72.796875 23.046875 72.796875 
Q 26.765625 72.796875 31.25 71.921875 
L 29.9375 64.265625 
Q 27.203125 64.75 24.75 64.75 
Q 20.75 64.75 19.09375 63.03125 
Q 17.4375 61.328125 17.4375 56.640625 
L 17.4375 51.859375 
L 27.546875 51.859375 
L 27.546875 45.015625 
L 17.4375 45.015625 
L 17.4375 0 
z
" id="ArialMT-66"/>
     </defs>
     <g style="fill:#262626;" transform="translate(170.287378 370.750445)scale(0.12 -0.12)">
      <use xlink:href="#ArialMT-4c"/>
      <use x="55.615234" xlink:href="#ArialMT-65"/>
      <use x="111.230469" xlink:href="#ArialMT-76"/>
      <use x="161.230469" xlink:href="#ArialMT-65"/>
      <use x="216.845703" xlink:href="#ArialMT-6c"/>
      <use x="239.0625" xlink:href="#ArialMT-20"/>
      <use x="266.845703" xlink:href="#ArialMT-6f"/>
      <use x="322.460938" xlink:href="#ArialMT-66"/>
      <use x="350.244141" xlink:href="#ArialMT-20"/>
      <use x="378.027344" xlink:href="#ArialMT-49"/>
      <use x="405.810547" xlink:href="#ArialMT-6e"/>
      <use x="461.425781" xlink:href="#ArialMT-74"/>
      <use x="489.208984" xlink:href="#ArialMT-65"/>
      <use x="544.824219" xlink:href="#ArialMT-72"/>
      <use x="578.125" xlink:href="#ArialMT-65"/>
      <use x="633.740234" xlink:href="#ArialMT-73"/>
      <use x="683.740234" xlink:href="#ArialMT-74"/>
     </g>
    </g>
   </g>
   <g id="matplotlib.axis_2">
    <g id="ytick_1">
     <g id="line2d_1">
      <path clip-path="url(#p1925b917f2)" d="M 70.855756 303.740001 
L 355.09525 303.740001 
" style="fill:none;stroke:#ffffff;stroke-linecap:round;"/>
     </g>
     <g id="text_4">
      <!-- 0.0 -->
      <defs>
       <path d="M 4.15625 35.296875 
Q 4.15625 48 6.765625 55.734375 
Q 9.375 63.484375 14.515625 67.671875 
Q 19.671875 71.875 27.484375 71.875 
Q 33.25 71.875 37.59375 69.546875 
Q 41.9375 67.234375 44.765625 62.859375 
Q 47.609375 58.5 49.21875 52.21875 
Q 50.828125 45.953125 50.828125 35.296875 
Q 50.828125 22.703125 48.234375 14.96875 
Q 45.65625 7.234375 40.5 3 
Q 35.359375 -1.21875 27.484375 -1.21875 
Q 17.140625 -1.21875 11.234375 6.203125 
Q 4.15625 15.140625 4.15625 35.296875 
z
M 13.1875 35.296875 
Q 13.1875 17.671875 17.3125 11.828125 
Q 21.4375 6 27.484375 6 
Q 33.546875 6 37.671875 11.859375 
Q 41.796875 17.71875 41.796875 35.296875 
Q 41.796875 52.984375 37.671875 58.78125 
Q 33.546875 64.59375 27.390625 64.59375 
Q 21.34375 64.59375 17.71875 59.46875 
Q 13.1875 52.9375 13.1875 35.296875 
z
" id="ArialMT-30"/>
       <path d="M 9.078125 0 
L 9.078125 10.015625 
L 19.09375 10.015625 
L 19.09375 0 
z
" id="ArialMT-2e"/>
      </defs>
      <g style="fill:#262626;" transform="translate(46.065756 307.676798)scale(0.11 -0.11)">
       <use xlink:href="#ArialMT-30"/>
       <use x="55.615234" xlink:href="#ArialMT-2e"/>
       <use x="83.398438" xlink:href="#ArialMT-30"/>
      </g>
     </g>
    </g>
    <g id="ytick_2">
     <g id="line2d_2">
      <path clip-path="url(#p1925b917f2)" d="M 70.855756 252.11779 
L 355.09525 252.11779 
" style="fill:none;stroke:#ffffff;stroke-linecap:round;"/>
     </g>
     <g id="text_5">
      <!-- 0.2 -->
      <defs>
       <path d="M 50.34375 8.453125 
L 50.34375 0 
L 3.03125 0 
Q 2.9375 3.171875 4.046875 6.109375 
Q 5.859375 10.9375 9.828125 15.625 
Q 13.8125 20.3125 21.34375 26.46875 
Q 33.015625 36.03125 37.109375 41.625 
Q 41.21875 47.21875 41.21875 52.203125 
Q 41.21875 57.421875 37.46875 61 
Q 33.734375 64.59375 27.734375 64.59375 
Q 21.390625 64.59375 17.578125 60.78125 
Q 13.765625 56.984375 13.71875 50.25 
L 4.6875 51.171875 
Q 5.609375 61.28125 11.65625 66.578125 
Q 17.71875 71.875 27.9375 71.875 
Q 38.234375 71.875 44.234375 66.15625 
Q 50.25 60.453125 50.25 52 
Q 50.25 47.703125 48.484375 43.546875 
Q 46.734375 39.40625 42.65625 34.8125 
Q 38.578125 30.21875 29.109375 22.21875 
Q 21.1875 15.578125 18.9375 13.203125 
Q 16.703125 10.84375 15.234375 8.453125 
z
" id="ArialMT-32"/>
      </defs>
      <g style="fill:#262626;" transform="translate(46.065756 256.054587)scale(0.11 -0.11)">
       <use xlink:href="#ArialMT-30"/>
       <use x="55.615234" xlink:href="#ArialMT-2e"/>
       <use x="83.398438" xlink:href="#ArialMT-32"/>
      </g>
     </g>
    </g>
    <g id="ytick_3">
     <g id="line2d_3">
      <path clip-path="url(#p1925b917f2)" d="M 70.855756 200.49558 
L 355.09525 200.49558 
" style="fill:none;stroke:#ffffff;stroke-linecap:round;"/>
     </g>
     <g id="text_6">
      <!-- 0.4 -->
      <defs>
       <path d="M 32.328125 0 
L 32.328125 17.140625 
L 1.265625 17.140625 
L 1.265625 25.203125 
L 33.9375 71.578125 
L 41.109375 71.578125 
L 41.109375 25.203125 
L 50.78125 25.203125 
L 50.78125 17.140625 
L 41.109375 17.140625 
L 41.109375 0 
z
M 32.328125 25.203125 
L 32.328125 57.46875 
L 9.90625 25.203125 
z
" id="ArialMT-34"/>
      </defs>
      <g style="fill:#262626;" transform="translate(46.065756 204.432376)scale(0.11 -0.11)">
       <use xlink:href="#ArialMT-30"/>
       <use x="55.615234" xlink:href="#ArialMT-2e"/>
       <use x="83.398438" xlink:href="#ArialMT-34"/>
      </g>
     </g>
    </g>
    <g id="ytick_4">
     <g id="line2d_4">
      <path clip-path="url(#p1925b917f2)" d="M 70.855756 148.873369 
L 355.09525 148.873369 
" style="fill:none;stroke:#ffffff;stroke-linecap:round;"/>
     </g>
     <g id="text_7">
      <!-- 0.6 -->
      <defs>
       <path d="M 49.75 54.046875 
L 41.015625 53.375 
Q 39.84375 58.546875 37.703125 60.890625 
Q 34.125 64.65625 28.90625 64.65625 
Q 24.703125 64.65625 21.53125 62.3125 
Q 17.390625 59.28125 14.984375 53.46875 
Q 12.59375 47.65625 12.5 36.921875 
Q 15.671875 41.75 20.265625 44.09375 
Q 24.859375 46.4375 29.890625 46.4375 
Q 38.671875 46.4375 44.84375 39.96875 
Q 51.03125 33.5 51.03125 23.25 
Q 51.03125 16.5 48.125 10.71875 
Q 45.21875 4.9375 40.140625 1.859375 
Q 35.0625 -1.21875 28.609375 -1.21875 
Q 17.625 -1.21875 10.6875 6.859375 
Q 3.765625 14.9375 3.765625 33.5 
Q 3.765625 54.25 11.421875 63.671875 
Q 18.109375 71.875 29.4375 71.875 
Q 37.890625 71.875 43.28125 67.140625 
Q 48.6875 62.40625 49.75 54.046875 
z
M 13.875 23.1875 
Q 13.875 18.65625 15.796875 14.5 
Q 17.71875 10.359375 21.1875 8.171875 
Q 24.65625 6 28.46875 6 
Q 34.03125 6 38.03125 10.484375 
Q 42.046875 14.984375 42.046875 22.703125 
Q 42.046875 30.125 38.078125 34.390625 
Q 34.125 38.671875 28.125 38.671875 
Q 22.171875 38.671875 18.015625 34.390625 
Q 13.875 30.125 13.875 23.1875 
z
" id="ArialMT-36"/>
      </defs>
      <g style="fill:#262626;" transform="translate(46.065756 152.810166)scale(0.11 -0.11)">
       <use xlink:href="#ArialMT-30"/>
       <use x="55.615234" xlink:href="#ArialMT-2e"/>
       <use x="83.398438" xlink:href="#ArialMT-36"/>
      </g>
     </g>
    </g>
    <g id="ytick_5">
     <g id="line2d_5">
      <path clip-path="url(#p1925b917f2)" d="M 70.855756 97.251158 
L 355.09525 97.251158 
" style="fill:none;stroke:#ffffff;stroke-linecap:round;"/>
     </g>
     <g id="text_8">
      <!-- 0.8 -->
      <defs>
       <path d="M 17.671875 38.8125 
Q 12.203125 40.828125 9.5625 44.53125 
Q 6.9375 48.25 6.9375 53.421875 
Q 6.9375 61.234375 12.546875 66.546875 
Q 18.171875 71.875 27.484375 71.875 
Q 36.859375 71.875 42.578125 66.421875 
Q 48.296875 60.984375 48.296875 53.171875 
Q 48.296875 48.1875 45.671875 44.5 
Q 43.0625 40.828125 37.75 38.8125 
Q 44.34375 36.671875 47.78125 31.875 
Q 51.21875 27.09375 51.21875 20.453125 
Q 51.21875 11.28125 44.71875 5.03125 
Q 38.234375 -1.21875 27.640625 -1.21875 
Q 17.046875 -1.21875 10.546875 5.046875 
Q 4.046875 11.328125 4.046875 20.703125 
Q 4.046875 27.6875 7.59375 32.390625 
Q 11.140625 37.109375 17.671875 38.8125 
z
M 15.921875 53.71875 
Q 15.921875 48.640625 19.1875 45.40625 
Q 22.46875 42.1875 27.6875 42.1875 
Q 32.765625 42.1875 36.015625 45.375 
Q 39.265625 48.578125 39.265625 53.21875 
Q 39.265625 58.0625 35.90625 61.359375 
Q 32.5625 64.65625 27.59375 64.65625 
Q 22.5625 64.65625 19.234375 61.421875 
Q 15.921875 58.203125 15.921875 53.71875 
z
M 13.09375 20.65625 
Q 13.09375 16.890625 14.875 13.375 
Q 16.65625 9.859375 20.171875 7.921875 
Q 23.6875 6 27.734375 6 
Q 34.03125 6 38.125 10.046875 
Q 42.234375 14.109375 42.234375 20.359375 
Q 42.234375 26.703125 38.015625 30.859375 
Q 33.796875 35.015625 27.4375 35.015625 
Q 21.234375 35.015625 17.15625 30.90625 
Q 13.09375 26.8125 13.09375 20.65625 
z
" id="ArialMT-38"/>
      </defs>
      <g style="fill:#262626;" transform="translate(46.065756 101.187955)scale(0.11 -0.11)">
       <use xlink:href="#ArialMT-30"/>
       <use x="55.615234" xlink:href="#ArialMT-2e"/>
       <use x="83.398438" xlink:href="#ArialMT-38"/>
      </g>
     </g>
    </g>
    <g id="ytick_6">
     <g id="line2d_6">
      <path clip-path="url(#p1925b917f2)" d="M 70.855756 45.628948 
L 355.09525 45.628948 
" style="fill:none;stroke:#ffffff;stroke-linecap:round;"/>
     </g>
     <g id="text_9">
      <!-- 1.0 -->
      <defs>
       <path d="M 37.25 0 
L 28.46875 0 
L 28.46875 56 
Q 25.296875 52.984375 20.140625 49.953125 
Q 14.984375 46.921875 10.890625 45.40625 
L 10.890625 53.90625 
Q 18.265625 57.375 23.78125 62.296875 
Q 29.296875 67.234375 31.59375 71.875 
L 37.25 71.875 
z
" id="ArialMT-31"/>
      </defs>
      <g style="fill:#262626;" transform="translate(46.065756 49.565744)scale(0.11 -0.11)">
       <use xlink:href="#ArialMT-31"/>
       <use x="55.615234" xlink:href="#ArialMT-2e"/>
       <use x="83.398438" xlink:href="#ArialMT-30"/>
      </g>
     </g>
    </g>
    <g id="text_10">
     <!-- Probability of Level of Interest -->
     <defs>
      <path d="M 7.71875 0 
L 7.71875 71.578125 
L 34.71875 71.578125 
Q 41.84375 71.578125 45.609375 70.90625 
Q 50.875 70.015625 54.4375 67.546875 
Q 58.015625 65.09375 60.1875 60.640625 
Q 62.359375 56.203125 62.359375 50.875 
Q 62.359375 41.75 56.546875 35.421875 
Q 50.734375 29.109375 35.546875 29.109375 
L 17.1875 29.109375 
L 17.1875 0 
z
M 17.1875 37.546875 
L 35.6875 37.546875 
Q 44.875 37.546875 48.734375 40.96875 
Q 52.59375 44.390625 52.59375 50.59375 
Q 52.59375 55.078125 50.3125 58.265625 
Q 48.046875 61.46875 44.34375 62.5 
Q 41.9375 63.140625 35.5 63.140625 
L 17.1875 63.140625 
z
" id="ArialMT-50"/>
      <path d="M 14.703125 0 
L 6.546875 0 
L 6.546875 71.578125 
L 15.328125 71.578125 
L 15.328125 46.046875 
Q 20.90625 53.03125 29.546875 53.03125 
Q 34.328125 53.03125 38.59375 51.09375 
Q 42.875 49.171875 45.625 45.671875 
Q 48.390625 42.1875 49.953125 37.25 
Q 51.515625 32.328125 51.515625 26.703125 
Q 51.515625 13.375 44.921875 6.09375 
Q 38.328125 -1.171875 29.109375 -1.171875 
Q 19.921875 -1.171875 14.703125 6.5 
z
M 14.59375 26.3125 
Q 14.59375 17 17.140625 12.84375 
Q 21.296875 6.0625 28.375 6.0625 
Q 34.125 6.0625 38.328125 11.0625 
Q 42.53125 16.0625 42.53125 25.984375 
Q 42.53125 36.140625 38.5 40.96875 
Q 34.46875 45.796875 28.765625 45.796875 
Q 23 45.796875 18.796875 40.796875 
Q 14.59375 35.796875 14.59375 26.3125 
z
" id="ArialMT-62"/>
      <path d="M 6.203125 -19.96875 
L 5.21875 -11.71875 
Q 8.109375 -12.5 10.25 -12.5 
Q 13.1875 -12.5 14.9375 -11.515625 
Q 16.703125 -10.546875 17.828125 -8.796875 
Q 18.65625 -7.46875 20.515625 -2.25 
Q 20.75 -1.515625 21.296875 -0.09375 
L 1.609375 51.859375 
L 11.078125 51.859375 
L 21.875 21.828125 
Q 23.96875 16.109375 25.640625 9.8125 
Q 27.15625 15.875 29.25 21.625 
L 40.328125 51.859375 
L 49.125 51.859375 
L 29.390625 -0.875 
Q 26.21875 -9.421875 24.46875 -12.640625 
Q 22.125 -17 19.09375 -19.015625 
Q 16.0625 -21.046875 11.859375 -21.046875 
Q 9.328125 -21.046875 6.203125 -19.96875 
z
" id="ArialMT-79"/>
     </defs>
     <g style="fill:#262626;" transform="translate(39.540131 253.784375)rotate(-90)scale(0.12 -0.12)">
      <use xlink:href="#ArialMT-50"/>
      <use x="66.699219" xlink:href="#ArialMT-72"/>
      <use x="100" xlink:href="#ArialMT-6f"/>
      <use x="155.615234" xlink:href="#ArialMT-62"/>
      <use x="211.230469" xlink:href="#ArialMT-61"/>
      <use x="266.845703" xlink:href="#ArialMT-62"/>
      <use x="322.460938" xlink:href="#ArialMT-69"/>
      <use x="344.677734" xlink:href="#ArialMT-6c"/>
      <use x="366.894531" xlink:href="#ArialMT-69"/>
      <use x="389.111328" xlink:href="#ArialMT-74"/>
      <use x="416.894531" xlink:href="#ArialMT-79"/>
      <use x="466.894531" xlink:href="#ArialMT-20"/>
      <use x="494.677734" xlink:href="#ArialMT-6f"/>
      <use x="550.292969" xlink:href="#ArialMT-66"/>
      <use x="578.076172" xlink:href="#ArialMT-20"/>
      <use x="605.859375" xlink:href="#ArialMT-4c"/>
      <use x="661.474609" xlink:href="#ArialMT-65"/>
      <use x="717.089844" xlink:href="#ArialMT-76"/>
      <use x="767.089844" xlink:href="#ArialMT-65"/>
      <use x="822.705078" xlink:href="#ArialMT-6c"/>
      <use x="844.921875" xlink:href="#ArialMT-20"/>
      <use x="872.705078" xlink:href="#ArialMT-6f"/>
      <use x="928.320312" xlink:href="#ArialMT-66"/>
      <use x="956.103516" xlink:href="#ArialMT-20"/>
      <use x="983.886719" xlink:href="#ArialMT-49"/>
      <use x="1011.669922" xlink:href="#ArialMT-6e"/>
      <use x="1067.285156" xlink:href="#ArialMT-74"/>
      <use x="1095.068359" xlink:href="#ArialMT-65"/>
      <use x="1150.683594" xlink:href="#ArialMT-72"/>
      <use x="1183.984375" xlink:href="#ArialMT-65"/>
      <use x="1239.599609" xlink:href="#ArialMT-73"/>
      <use x="1289.599609" xlink:href="#ArialMT-74"/>
     </g>
    </g>
   </g>
   <g id="PathCollection_1"/>
   <g id="PathCollection_2"/>
   <g id="PathCollection_3"/>
   <g id="patch_3">
    <path d="M 70.855756 313.493125 
L 70.855756 36 
" style="fill:none;stroke:#ffffff;stroke-linecap:square;stroke-linejoin:miter;stroke-width:1.25;"/>
   </g>
   <g id="patch_4">
    <path d="M 70.855756 313.493125 
L 355.09525 313.493125 
" style="fill:none;stroke:#ffffff;stroke-linecap:square;stroke-linejoin:miter;stroke-width:1.25;"/>
   </g>
   <g id="PathCollection_4">
    <defs>
     <path d="M 0 2.5 
C 0.663008 2.5 1.29895 2.236584 1.767767 1.767767 
C 2.236584 1.29895 2.5 0.663008 2.5 0 
C 2.5 -0.663008 2.236584 -1.29895 1.767767 -1.767767 
C 1.29895 -2.236584 0.663008 -2.5 0 -2.5 
C -0.663008 -2.5 -1.29895 -2.236584 -1.767767 -1.767767 
C -2.236584 -1.29895 -2.5 -0.663008 -2.5 0 
C -2.5 0.663008 -2.236584 1.29895 -1.767767 1.767767 
C -1.29895 2.236584 -0.663008 2.5 0 2.5 
z
" id="C0_0_e6dcc30435"/>
    </defs>
    <g clip-path="url(#p1925b917f2)">
     <use style="fill:#4c72b0;" x="141.915629" xlink:href="#C0_0_e6dcc30435" y="295.102573"/>
    </g>
    <g clip-path="url(#p1925b917f2)">
     <use style="fill:#4c72b0;" x="136.98585" xlink:href="#C0_0_e6dcc30435" y="294.684691"/>
    </g>
    <g clip-path="url(#p1925b917f2)">
     <use style="fill:#dd8452;" x="141.915629" xlink:href="#C0_0_e6dcc30435" y="289.02096"/>
    </g>
    <g clip-path="url(#p1925b917f2)">
     <use style="fill:#dd8452;" x="137.012509" xlink:href="#C0_0_e6dcc30435" y="288.395815"/>
    </g>
    <g clip-path="url(#p1925b917f2)">
     <use style="fill:#dd8452;" x="141.915629" xlink:href="#C0_0_e6dcc30435" y="280.926856"/>
    </g>
    <g clip-path="url(#p1925b917f2)">
     <use style="fill:#dd8452;" x="137.890698" xlink:href="#C0_0_e6dcc30435" y="278.308319"/>
    </g>
    <g clip-path="url(#p1925b917f2)">
     <use style="fill:#4c72b0;" x="141.915629" xlink:href="#C0_0_e6dcc30435" y="273.367041"/>
    </g>
    <g clip-path="url(#p1925b917f2)">
     <use style="fill:#4c72b0;" x="137.698231" xlink:href="#C0_0_e6dcc30435" y="271.011519"/>
    </g>
    <g clip-path="url(#p1925b917f2)">
     <use style="fill:#55a868;" x="145.505255" xlink:href="#C0_0_e6dcc30435" y="270.270224"/>
    </g>
    <g clip-path="url(#p1925b917f2)">
     <use style="fill:#dd8452;" x="141.915629" xlink:href="#C0_0_e6dcc30435" y="262.44662"/>
    </g>
    <g clip-path="url(#p1925b917f2)">
     <use style="fill:#dd8452;" x="137.16408" xlink:href="#C0_0_e6dcc30435" y="261.18265"/>
    </g>
    <g clip-path="url(#p1925b917f2)">
     <use style="fill:#4c72b0;" x="146.597617" xlink:href="#C0_0_e6dcc30435" y="260.984163"/>
    </g>
    <g clip-path="url(#p1925b917f2)">
     <use style="fill:#55a868;" x="141.915629" xlink:href="#C0_0_e6dcc30435" y="257.249812"/>
    </g>
    <g clip-path="url(#p1925b917f2)">
     <use style="fill:#55a868;" x="137.202332" xlink:href="#C0_0_e6dcc30435" y="255.87279"/>
    </g>
    <g clip-path="url(#p1925b917f2)">
     <use style="fill:#dd8452;" x="146.212" xlink:href="#C0_0_e6dcc30435" y="255.015087"/>
    </g>
    <g clip-path="url(#p1925b917f2)">
     <use style="fill:#55a868;" x="151.145837" xlink:href="#C0_0_e6dcc30435" y="254.638761"/>
    </g>
    <g clip-path="url(#p1925b917f2)">
     <use style="fill:#dd8452;" x="141.915629" xlink:href="#C0_0_e6dcc30435" y="249.647926"/>
    </g>
    <g clip-path="url(#p1925b917f2)">
     <use style="fill:#dd8452;" x="137.594959" xlink:href="#C0_0_e6dcc30435" y="247.452175"/>
    </g>
    <g clip-path="url(#p1925b917f2)">
     <use style="fill:#dd8452;" x="145.432167" xlink:href="#C0_0_e6dcc30435" y="246.48271"/>
    </g>
    <g clip-path="url(#p1925b917f2)">
     <use style="fill:#55a868;" x="141.915629" xlink:href="#C0_0_e6dcc30435" y="242.096371"/>
    </g>
    <g clip-path="url(#p1925b917f2)">
     <use style="fill:#dd8452;" x="141.915629" xlink:href="#C0_0_e6dcc30435" y="236.801738"/>
    </g>
    <g clip-path="url(#p1925b917f2)">
     <use style="fill:#55a868;" x="137.154709" xlink:href="#C0_0_e6dcc30435" y="235.567193"/>
    </g>
    <g clip-path="url(#p1925b917f2)">
     <use style="fill:#55a868;" x="144.404553" xlink:href="#C0_0_e6dcc30435" y="232.914844"/>
    </g>
    <g clip-path="url(#p1925b917f2)">
     <use style="fill:#dd8452;" x="149.355471" xlink:href="#C0_0_e6dcc30435" y="232.866061"/>
    </g>
    <g clip-path="url(#p1925b917f2)">
     <use style="fill:#dd8452;" x="133.556464" xlink:href="#C0_0_e6dcc30435" y="232.478636"/>
    </g>
    <g clip-path="url(#p1925b917f2)">
     <use style="fill:#4c72b0;" x="154.256737" xlink:href="#C0_0_e6dcc30435" y="232.229043"/>
    </g>
    <g clip-path="url(#p1925b917f2)">
     <use style="fill:#dd8452;" x="128.626315" xlink:href="#C0_0_e6dcc30435" y="232.064368"/>
    </g>
    <g clip-path="url(#p1925b917f2)">
     <use style="fill:#55a868;" x="140.212245" xlink:href="#C0_0_e6dcc30435" y="230.522671"/>
    </g>
    <g clip-path="url(#p1925b917f2)">
     <use style="fill:#4c72b0;" x="141.915629" xlink:href="#C0_0_e6dcc30435" y="214.736341"/>
    </g>
    <g clip-path="url(#p1925b917f2)">
     <use style="fill:#dd8452;" x="139.84965" xlink:href="#C0_0_e6dcc30435" y="210.650185"/>
    </g>
    <g clip-path="url(#p1925b917f2)">
     <use style="fill:#dd8452;" x="144.343832" xlink:href="#C0_0_e6dcc30435" y="208.763393"/>
    </g>
    <g clip-path="url(#p1925b917f2)">
     <use style="fill:#dd8452;" x="135.895736" xlink:href="#C0_0_e6dcc30435" y="207.94389"/>
    </g>
    <g clip-path="url(#p1925b917f2)">
     <use style="fill:#4c72b0;" x="141.915629" xlink:href="#C0_0_e6dcc30435" y="199.384153"/>
    </g>
    <g clip-path="url(#p1925b917f2)">
     <use style="fill:#55a868;" x="141.915629" xlink:href="#C0_0_e6dcc30435" y="194.30969"/>
    </g>
    <g clip-path="url(#p1925b917f2)">
     <use style="fill:#4c72b0;" x="136.996312" xlink:href="#C0_0_e6dcc30435" y="193.800179"/>
    </g>
    <g clip-path="url(#p1925b917f2)">
     <use style="fill:#4c72b0;" x="141.915629" xlink:href="#C0_0_e6dcc30435" y="187.554149"/>
    </g>
    <g clip-path="url(#p1925b917f2)">
     <use style="fill:#4c72b0;" x="137.080817" xlink:href="#C0_0_e6dcc30435" y="186.584942"/>
    </g>
    <g clip-path="url(#p1925b917f2)">
     <use style="fill:#55a868;" x="144.772748" xlink:href="#C0_0_e6dcc30435" y="183.882004"/>
    </g>
    <g clip-path="url(#p1925b917f2)">
     <use style="fill:#55a868;" x="141.5873" xlink:href="#C0_0_e6dcc30435" y="180.439835"/>
    </g>
    <g clip-path="url(#p1925b917f2)">
     <use style="fill:#55a868;" x="145.888706" xlink:href="#C0_0_e6dcc30435" y="178.21311"/>
    </g>
    <g clip-path="url(#p1925b917f2)">
     <use style="fill:#55a868;" x="137.549601" xlink:href="#C0_0_e6dcc30435" y="177.837559"/>
    </g>
    <g clip-path="url(#p1925b917f2)">
     <use style="fill:#4c72b0;" x="141.915629" xlink:href="#C0_0_e6dcc30435" y="174.056232"/>
    </g>
    <g clip-path="url(#p1925b917f2)">
     <use style="fill:#4c72b0;" x="138.653976" xlink:href="#C0_0_e6dcc30435" y="170.673428"/>
    </g>
    <g clip-path="url(#p1925b917f2)">
     <use style="fill:#dd8452;" x="143.473023" xlink:href="#C0_0_e6dcc30435" y="169.6415"/>
    </g>
    <g clip-path="url(#p1925b917f2)">
     <use style="fill:#dd8452;" x="148.424109" xlink:href="#C0_0_e6dcc30435" y="169.609753"/>
    </g>
    <g clip-path="url(#p1925b917f2)">
     <use style="fill:#dd8452;" x="141.915629" xlink:href="#C0_0_e6dcc30435" y="158.609318"/>
    </g>
    <g clip-path="url(#p1925b917f2)">
     <use style="fill:#dd8452;" x="137.208686" xlink:href="#C0_0_e6dcc30435" y="157.214486"/>
    </g>
    <g clip-path="url(#p1925b917f2)">
     <use style="fill:#dd8452;" x="146.054628" xlink:href="#C0_0_e6dcc30435" y="156.141776"/>
    </g>
    <g clip-path="url(#p1925b917f2)">
     <use style="fill:#55a868;" x="141.915629" xlink:href="#C0_0_e6dcc30435" y="153.78832"/>
    </g>
    <g clip-path="url(#p1925b917f2)">
     <use style="fill:#4c72b0;" x="138.530043" xlink:href="#C0_0_e6dcc30435" y="150.50747"/>
    </g>
    <g clip-path="url(#p1925b917f2)">
     <use style="fill:#4c72b0;" x="141.915629" xlink:href="#C0_0_e6dcc30435" y="144.027334"/>
    </g>
    <g clip-path="url(#p1925b917f2)">
     <use style="fill:#dd8452;" x="137.343627" xlink:href="#C0_0_e6dcc30435" y="142.301603"/>
    </g>
    <g clip-path="url(#p1925b917f2)">
     <use style="fill:#dd8452;" x="144.62865" xlink:href="#C0_0_e6dcc30435" y="140.26614"/>
    </g>
    <g clip-path="url(#p1925b917f2)">
     <use style="fill:#dd8452;" x="149.372036" xlink:href="#C0_0_e6dcc30435" y="138.977133"/>
    </g>
    <g clip-path="url(#p1925b917f2)">
     <use style="fill:#dd8452;" x="134.011599" xlink:href="#C0_0_e6dcc30435" y="138.975842"/>
    </g>
    <g clip-path="url(#p1925b917f2)">
     <use style="fill:#dd8452;" x="141.915629" xlink:href="#C0_0_e6dcc30435" y="133.872213"/>
    </g>
    <g clip-path="url(#p1925b917f2)">
     <use style="fill:#dd8452;" x="136.965549" xlink:href="#C0_0_e6dcc30435" y="133.776195"/>
    </g>
    <g clip-path="url(#p1925b917f2)">
     <use style="fill:#dd8452;" x="146.761809" xlink:href="#C0_0_e6dcc30435" y="132.951014"/>
    </g>
    <g clip-path="url(#p1925b917f2)">
     <use style="fill:#55a868;" x="132.307173" xlink:href="#C0_0_e6dcc30435" y="132.252824"/>
    </g>
    <g clip-path="url(#p1925b917f2)">
     <use style="fill:#4c72b0;" x="141.915629" xlink:href="#C0_0_e6dcc30435" y="129.189046"/>
    </g>
    <g clip-path="url(#p1925b917f2)">
     <use style="fill:#dd8452;" x="141.915629" xlink:href="#C0_0_e6dcc30435" y="124.646291"/>
    </g>
    <g clip-path="url(#p1925b917f2)">
     <use style="fill:#55a868;" x="136.975658" xlink:href="#C0_0_e6dcc30435" y="124.343527"/>
    </g>
    <g clip-path="url(#p1925b917f2)">
     <use style="fill:#dd8452;" x="141.915629" xlink:href="#C0_0_e6dcc30435" y="112.475064"/>
    </g>
    <g clip-path="url(#p1925b917f2)">
     <use style="fill:#4c72b0;" x="137.850575" xlink:href="#C0_0_e6dcc30435" y="109.90815"/>
    </g>
    <g clip-path="url(#p1925b917f2)">
     <use style="fill:#4c72b0;" x="141.915629" xlink:href="#C0_0_e6dcc30435" y="107.228183"/>
    </g>
    <g clip-path="url(#p1925b917f2)">
     <use style="fill:#55a868;" x="146.531263" xlink:href="#C0_0_e6dcc30435" y="105.601051"/>
    </g>
    <g clip-path="url(#p1925b917f2)">
     <use style="fill:#dd8452;" x="141.915629" xlink:href="#C0_0_e6dcc30435" y="96.245299"/>
    </g>
    <g clip-path="url(#p1925b917f2)">
     <use style="fill:#dd8452;" x="137.056669" xlink:href="#C0_0_e6dcc30435" y="95.381402"/>
    </g>
    <g clip-path="url(#p1925b917f2)">
     <use style="fill:#dd8452;" x="145.85728" xlink:href="#C0_0_e6dcc30435" y="93.524293"/>
    </g>
    <g clip-path="url(#p1925b917f2)">
     <use style="fill:#4c72b0;" x="141.915629" xlink:href="#C0_0_e6dcc30435" y="90.63061"/>
    </g>
    <g clip-path="url(#p1925b917f2)">
     <use style="fill:#4c72b0;" x="141.915629" xlink:href="#C0_0_e6dcc30435" y="81.236142"/>
    </g>
    <g clip-path="url(#p1925b917f2)">
     <use style="fill:#dd8452;" x="137.002204" xlink:href="#C0_0_e6dcc30435" y="80.681719"/>
    </g>
    <g clip-path="url(#p1925b917f2)">
     <use style="fill:#55a868;" x="141.915629" xlink:href="#C0_0_e6dcc30435" y="75.55615"/>
    </g>
    <g clip-path="url(#p1925b917f2)">
     <use style="fill:#dd8452;" x="137.057338" xlink:href="#C0_0_e6dcc30435" y="74.689155"/>
    </g>
    <g clip-path="url(#p1925b917f2)">
     <use style="fill:#55a868;" x="141.915629" xlink:href="#C0_0_e6dcc30435" y="70.204475"/>
    </g>
    <g clip-path="url(#p1925b917f2)">
     <use style="fill:#4c72b0;" x="137.236485" xlink:href="#C0_0_e6dcc30435" y="68.734533"/>
    </g>
    <g clip-path="url(#p1925b917f2)">
     <use style="fill:#4c72b0;" x="141.915629" xlink:href="#C0_0_e6dcc30435" y="60.120593"/>
    </g>
    <g clip-path="url(#p1925b917f2)">
     <use style="fill:#55a868;" x="139.107404" xlink:href="#C0_0_e6dcc30435" y="56.417473"/>
    </g>
    <g clip-path="url(#p1925b917f2)">
     <use style="fill:#55a868;" x="144.267634" xlink:href="#C0_0_e6dcc30435" y="56.164008"/>
    </g>
    <g clip-path="url(#p1925b917f2)">
     <use style="fill:#55a868;" x="149.141195" xlink:href="#C0_0_e6dcc30435" y="55.370833"/>
    </g>
    <g clip-path="url(#p1925b917f2)">
     <use style="fill:#dd8452;" x="141.915629" xlink:href="#C0_0_e6dcc30435" y="50.704443"/>
    </g>
   </g>
   <g id="PathCollection_5">
    <defs>
     <path d="M 0 2.5 
C 0.663008 2.5 1.29895 2.236584 1.767767 1.767767 
C 2.236584 1.29895 2.5 0.663008 2.5 0 
C 2.5 -0.663008 2.236584 -1.29895 1.767767 -1.767767 
C 1.29895 -2.236584 0.663008 -2.5 0 -2.5 
C -0.663008 -2.5 -1.29895 -2.236584 -1.767767 -1.767767 
C -2.236584 -1.29895 -2.5 -0.663008 -2.5 0 
C -2.5 0.663008 -2.236584 1.29895 -1.767767 1.767767 
C -1.29895 2.236584 -0.663008 2.5 0 2.5 
z
" id="C1_0_8bcb90ca70"/>
    </defs>
    <g clip-path="url(#p1925b917f2)">
     <use style="fill:#dd8452;" x="284.035376" xlink:href="#C1_0_8bcb90ca70" y="298.664505"/>
    </g>
    <g clip-path="url(#p1925b917f2)">
     <use style="fill:#55a868;" x="284.035376" xlink:href="#C1_0_8bcb90ca70" y="293.998115"/>
    </g>
    <g clip-path="url(#p1925b917f2)">
     <use style="fill:#55a868;" x="279.161815" xlink:href="#C1_0_8bcb90ca70" y="293.20494"/>
    </g>
    <g clip-path="url(#p1925b917f2)">
     <use style="fill:#55a868;" x="288.850575" xlink:href="#C1_0_8bcb90ca70" y="292.951475"/>
    </g>
    <g clip-path="url(#p1925b917f2)">
     <use style="fill:#4c72b0;" x="284.035376" xlink:href="#C1_0_8bcb90ca70" y="289.248356"/>
    </g>
    <g clip-path="url(#p1925b917f2)">
     <use style="fill:#4c72b0;" x="284.035376" xlink:href="#C1_0_8bcb90ca70" y="280.634416"/>
    </g>
    <g clip-path="url(#p1925b917f2)">
     <use style="fill:#55a868;" x="279.356232" xlink:href="#C1_0_8bcb90ca70" y="279.164473"/>
    </g>
    <g clip-path="url(#p1925b917f2)">
     <use style="fill:#dd8452;" x="284.035376" xlink:href="#C1_0_8bcb90ca70" y="274.679794"/>
    </g>
    <g clip-path="url(#p1925b917f2)">
     <use style="fill:#55a868;" x="279.177085" xlink:href="#C1_0_8bcb90ca70" y="273.812799"/>
    </g>
    <g clip-path="url(#p1925b917f2)">
     <use style="fill:#dd8452;" x="284.035376" xlink:href="#C1_0_8bcb90ca70" y="268.686971"/>
    </g>
    <g clip-path="url(#p1925b917f2)">
     <use style="fill:#4c72b0;" x="279.121881" xlink:href="#C1_0_8bcb90ca70" y="268.133065"/>
    </g>
    <g clip-path="url(#p1925b917f2)">
     <use style="fill:#4c72b0;" x="284.035376" xlink:href="#C1_0_8bcb90ca70" y="258.738081"/>
    </g>
    <g clip-path="url(#p1925b917f2)">
     <use style="fill:#dd8452;" x="280.245549" xlink:href="#C1_0_8bcb90ca70" y="255.844656"/>
    </g>
    <g clip-path="url(#p1925b917f2)">
     <use style="fill:#dd8452;" x="284.754699" xlink:href="#C1_0_8bcb90ca70" y="253.987547"/>
    </g>
    <g clip-path="url(#p1925b917f2)">
     <use style="fill:#dd8452;" x="289.613659" xlink:href="#C1_0_8bcb90ca70" y="253.123649"/>
    </g>
    <g clip-path="url(#p1925b917f2)">
     <use style="fill:#55a868;" x="284.035376" xlink:href="#C1_0_8bcb90ca70" y="243.768156"/>
    </g>
    <g clip-path="url(#p1925b917f2)">
     <use style="fill:#4c72b0;" x="279.419853" xlink:href="#C1_0_8bcb90ca70" y="242.140766"/>
    </g>
    <g clip-path="url(#p1925b917f2)">
     <use style="fill:#4c72b0;" x="285.455557" xlink:href="#C1_0_8bcb90ca70" y="239.460799"/>
    </g>
    <g clip-path="url(#p1925b917f2)">
     <use style="fill:#dd8452;" x="281.390305" xlink:href="#C1_0_8bcb90ca70" y="236.894142"/>
    </g>
    <g clip-path="url(#p1925b917f2)">
     <use style="fill:#55a868;" x="284.035376" xlink:href="#C1_0_8bcb90ca70" y="225.02568"/>
    </g>
    <g clip-path="url(#p1925b917f2)">
     <use style="fill:#dd8452;" x="279.095405" xlink:href="#C1_0_8bcb90ca70" y="224.722916"/>
    </g>
    <g clip-path="url(#p1925b917f2)">
     <use style="fill:#4c72b0;" x="284.035376" xlink:href="#C1_0_8bcb90ca70" y="220.179903"/>
    </g>
    <g clip-path="url(#p1925b917f2)">
     <use style="fill:#55a868;" x="280.411536" xlink:href="#C1_0_8bcb90ca70" y="217.116125"/>
    </g>
    <g clip-path="url(#p1925b917f2)">
     <use style="fill:#dd8452;" x="286.747095" xlink:href="#C1_0_8bcb90ca70" y="216.417934"/>
    </g>
    <g clip-path="url(#p1925b917f2)">
     <use style="fill:#dd8452;" x="291.614155" xlink:href="#C1_0_8bcb90ca70" y="215.592495"/>
    </g>
    <g clip-path="url(#p1925b917f2)">
     <use style="fill:#dd8452;" x="275.792602" xlink:href="#C1_0_8bcb90ca70" y="215.496736"/>
    </g>
    <g clip-path="url(#p1925b917f2)">
     <use style="fill:#dd8452;" x="284.035376" xlink:href="#C1_0_8bcb90ca70" y="210.393106"/>
    </g>
    <g clip-path="url(#p1925b917f2)">
     <use style="fill:#dd8452;" x="279.084167" xlink:href="#C1_0_8bcb90ca70" y="210.391557"/>
    </g>
    <g clip-path="url(#p1925b917f2)">
     <use style="fill:#dd8452;" x="288.778337" xlink:href="#C1_0_8bcb90ca70" y="209.102809"/>
    </g>
    <g clip-path="url(#p1925b917f2)">
     <use style="fill:#dd8452;" x="275.750267" xlink:href="#C1_0_8bcb90ca70" y="207.067345"/>
    </g>
    <g clip-path="url(#p1925b917f2)">
     <use style="fill:#4c72b0;" x="284.035376" xlink:href="#C1_0_8bcb90ca70" y="205.341873"/>
    </g>
    <g clip-path="url(#p1925b917f2)">
     <use style="fill:#4c72b0;" x="284.035376" xlink:href="#C1_0_8bcb90ca70" y="198.861479"/>
    </g>
    <g clip-path="url(#p1925b917f2)">
     <use style="fill:#55a868;" x="280.64979" xlink:href="#C1_0_8bcb90ca70" y="195.580629"/>
    </g>
    <g clip-path="url(#p1925b917f2)">
     <use style="fill:#dd8452;" x="284.868585" xlink:href="#C1_0_8bcb90ca70" y="193.227172"/>
    </g>
    <g clip-path="url(#p1925b917f2)">
     <use style="fill:#dd8452;" x="289.676822" xlink:href="#C1_0_8bcb90ca70" y="192.154463"/>
    </g>
    <g clip-path="url(#p1925b917f2)">
     <use style="fill:#dd8452;" x="280.729774" xlink:href="#C1_0_8bcb90ca70" y="190.759373"/>
    </g>
    <g clip-path="url(#p1925b917f2)">
     <use style="fill:#dd8452;" x="284.035376" xlink:href="#C1_0_8bcb90ca70" y="179.759196"/>
    </g>
    <g clip-path="url(#p1925b917f2)">
     <use style="fill:#dd8452;" x="279.084289" xlink:href="#C1_0_8bcb90ca70" y="179.727706"/>
    </g>
    <g clip-path="url(#p1925b917f2)">
     <use style="fill:#4c72b0;" x="288.845977" xlink:href="#C1_0_8bcb90ca70" y="178.695262"/>
    </g>
    <g clip-path="url(#p1925b917f2)">
     <use style="fill:#4c72b0;" x="283.30042" xlink:href="#C1_0_8bcb90ca70" y="175.312717"/>
    </g>
    <g clip-path="url(#p1925b917f2)">
     <use style="fill:#55a868;" x="285.979291" xlink:href="#C1_0_8bcb90ca70" y="171.53139"/>
    </g>
    <g clip-path="url(#p1925b917f2)">
     <use style="fill:#55a868;" x="281.045383" xlink:href="#C1_0_8bcb90ca70" y="171.155838"/>
    </g>
    <g clip-path="url(#p1925b917f2)">
     <use style="fill:#55a868;" x="290.016789" xlink:href="#C1_0_8bcb90ca70" y="168.928856"/>
    </g>
    <g clip-path="url(#p1925b917f2)">
     <use style="fill:#55a868;" x="284.035376" xlink:href="#C1_0_8bcb90ca70" y="165.486945"/>
    </g>
    <g clip-path="url(#p1925b917f2)">
     <use style="fill:#4c72b0;" x="280.07868" xlink:href="#C1_0_8bcb90ca70" y="162.784006"/>
    </g>
    <g clip-path="url(#p1925b917f2)">
     <use style="fill:#4c72b0;" x="286.892495" xlink:href="#C1_0_8bcb90ca70" y="161.814799"/>
    </g>
    <g clip-path="url(#p1925b917f2)">
     <use style="fill:#4c72b0;" x="284.035376" xlink:href="#C1_0_8bcb90ca70" y="155.56877"/>
    </g>
    <g clip-path="url(#p1925b917f2)">
     <use style="fill:#55a868;" x="279.116059" xlink:href="#C1_0_8bcb90ca70" y="155.059258"/>
    </g>
    <g clip-path="url(#p1925b917f2)">
     <use style="fill:#4c72b0;" x="284.035376" xlink:href="#C1_0_8bcb90ca70" y="149.984537"/>
    </g>
    <g clip-path="url(#p1925b917f2)">
     <use style="fill:#dd8452;" x="284.035376" xlink:href="#C1_0_8bcb90ca70" y="141.425058"/>
    </g>
    <g clip-path="url(#p1925b917f2)">
     <use style="fill:#dd8452;" x="279.167047" xlink:href="#C1_0_8bcb90ca70" y="140.605814"/>
    </g>
    <g clip-path="url(#p1925b917f2)">
     <use style="fill:#dd8452;" x="287.98929" xlink:href="#C1_0_8bcb90ca70" y="138.718764"/>
    </g>
    <g clip-path="url(#p1925b917f2)">
     <use style="fill:#4c72b0;" x="284.035376" xlink:href="#C1_0_8bcb90ca70" y="134.632608"/>
    </g>
    <g clip-path="url(#p1925b917f2)">
     <use style="fill:#55a868;" x="284.035376" xlink:href="#C1_0_8bcb90ca70" y="118.846278"/>
    </g>
    <g clip-path="url(#p1925b917f2)">
     <use style="fill:#dd8452;" x="279.384421" xlink:href="#C1_0_8bcb90ca70" y="117.304322"/>
    </g>
    <g clip-path="url(#p1925b917f2)">
     <use style="fill:#4c72b0;" x="288.616181" xlink:href="#C1_0_8bcb90ca70" y="117.139905"/>
    </g>
    <g clip-path="url(#p1925b917f2)">
     <use style="fill:#dd8452;" x="293.559756" xlink:href="#C1_0_8bcb90ca70" y="116.890312"/>
    </g>
    <g clip-path="url(#p1925b917f2)">
     <use style="fill:#dd8452;" x="274.512498" xlink:href="#C1_0_8bcb90ca70" y="116.502887"/>
    </g>
    <g clip-path="url(#p1925b917f2)">
     <use style="fill:#55a868;" x="298.48761" xlink:href="#C1_0_8bcb90ca70" y="116.454104"/>
    </g>
    <g clip-path="url(#p1925b917f2)">
     <use style="fill:#55a868;" x="284.035376" xlink:href="#C1_0_8bcb90ca70" y="113.802013"/>
    </g>
    <g clip-path="url(#p1925b917f2)">
     <use style="fill:#dd8452;" x="288.796216" xlink:href="#C1_0_8bcb90ca70" y="112.56721"/>
    </g>
    <g clip-path="url(#p1925b917f2)">
     <use style="fill:#55a868;" x="284.035376" xlink:href="#C1_0_8bcb90ca70" y="107.272578"/>
    </g>
    <g clip-path="url(#p1925b917f2)">
     <use style="fill:#dd8452;" x="282.945863" xlink:href="#C1_0_8bcb90ca70" y="102.886497"/>
    </g>
    <g clip-path="url(#p1925b917f2)">
     <use style="fill:#dd8452;" x="287.78055" xlink:href="#C1_0_8bcb90ca70" y="101.916774"/>
    </g>
    <g clip-path="url(#p1925b917f2)">
     <use style="fill:#dd8452;" x="279.429607" xlink:href="#C1_0_8bcb90ca70" y="99.721023"/>
    </g>
    <g clip-path="url(#p1925b917f2)">
     <use style="fill:#55a868;" x="284.035376" xlink:href="#C1_0_8bcb90ca70" y="94.730188"/>
    </g>
    <g clip-path="url(#p1925b917f2)">
     <use style="fill:#dd8452;" x="279.101564" xlink:href="#C1_0_8bcb90ca70" y="94.353604"/>
    </g>
    <g clip-path="url(#p1925b917f2)">
     <use style="fill:#55a868;" x="288.796459" xlink:href="#C1_0_8bcb90ca70" y="93.496159"/>
    </g>
    <g clip-path="url(#p1925b917f2)">
     <use style="fill:#55a868;" x="274.805192" xlink:href="#C1_0_8bcb90ca70" y="92.118878"/>
    </g>
    <g clip-path="url(#p1925b917f2)">
     <use style="fill:#4c72b0;" x="284.035376" xlink:href="#C1_0_8bcb90ca70" y="88.384785"/>
    </g>
    <g clip-path="url(#p1925b917f2)">
     <use style="fill:#dd8452;" x="288.981759" xlink:href="#C1_0_8bcb90ca70" y="88.186298"/>
    </g>
    <g clip-path="url(#p1925b917f2)">
     <use style="fill:#dd8452;" x="279.353388" xlink:href="#C1_0_8bcb90ca70" y="86.922328"/>
    </g>
    <g clip-path="url(#p1925b917f2)">
     <use style="fill:#55a868;" x="284.035376" xlink:href="#C1_0_8bcb90ca70" y="79.098724"/>
    </g>
    <g clip-path="url(#p1925b917f2)">
     <use style="fill:#4c72b0;" x="279.151921" xlink:href="#C1_0_8bcb90ca70" y="78.357429"/>
    </g>
    <g clip-path="url(#p1925b917f2)">
     <use style="fill:#4c72b0;" x="287.625002" xlink:href="#C1_0_8bcb90ca70" y="76.001908"/>
    </g>
    <g clip-path="url(#p1925b917f2)">
     <use style="fill:#dd8452;" x="284.035376" xlink:href="#C1_0_8bcb90ca70" y="71.060888"/>
    </g>
    <g clip-path="url(#p1925b917f2)">
     <use style="fill:#dd8452;" x="280.010649" xlink:href="#C1_0_8bcb90ca70" y="68.442093"/>
    </g>
    <g clip-path="url(#p1925b917f2)">
     <use style="fill:#dd8452;" x="284.035376" xlink:href="#C1_0_8bcb90ca70" y="60.973133"/>
    </g>
    <g clip-path="url(#p1925b917f2)">
     <use style="fill:#dd8452;" x="279.132256" xlink:href="#C1_0_8bcb90ca70" y="60.347988"/>
    </g>
    <g clip-path="url(#p1925b917f2)">
     <use style="fill:#4c72b0;" x="284.035376" xlink:href="#C1_0_8bcb90ca70" y="54.684258"/>
    </g>
    <g clip-path="url(#p1925b917f2)">
     <use style="fill:#4c72b0;" x="279.105597" xlink:href="#C1_0_8bcb90ca70" y="54.266376"/>
    </g>
   </g>
  </g>
  <g id="text_11">
   <!-- swarm plot of OpenEAR: Level of Interest -->
   <defs>
    <path d="M 16.15625 0 
L 0.296875 51.859375 
L 9.375 51.859375 
L 17.625 21.921875 
L 20.703125 10.796875 
Q 20.90625 11.625 23.390625 21.484375 
L 31.640625 51.859375 
L 40.671875 51.859375 
L 48.4375 21.78125 
L 51.03125 11.859375 
L 54 21.875 
L 62.890625 51.859375 
L 71.4375 51.859375 
L 55.21875 0 
L 46.09375 0 
L 37.84375 31.0625 
L 35.84375 39.890625 
L 25.34375 0 
z
" id="ArialMT-77"/>
    <path d="M 6.59375 -19.875 
L 6.59375 51.859375 
L 14.59375 51.859375 
L 14.59375 45.125 
Q 17.4375 49.078125 21 51.046875 
Q 24.5625 53.03125 29.640625 53.03125 
Q 36.28125 53.03125 41.359375 49.609375 
Q 46.4375 46.1875 49.015625 39.953125 
Q 51.609375 33.734375 51.609375 26.3125 
Q 51.609375 18.359375 48.75 11.984375 
Q 45.90625 5.609375 40.453125 2.21875 
Q 35.015625 -1.171875 29 -1.171875 
Q 24.609375 -1.171875 21.109375 0.6875 
Q 17.625 2.546875 15.375 5.375 
L 15.375 -19.875 
z
M 14.546875 25.640625 
Q 14.546875 15.625 18.59375 10.84375 
Q 22.65625 6.0625 28.421875 6.0625 
Q 34.28125 6.0625 38.453125 11.015625 
Q 42.625 15.96875 42.625 26.375 
Q 42.625 36.28125 38.546875 41.203125 
Q 34.46875 46.140625 28.8125 46.140625 
Q 23.1875 46.140625 18.859375 40.890625 
Q 14.546875 35.640625 14.546875 25.640625 
z
" id="ArialMT-70"/>
    <path d="M 4.828125 34.859375 
Q 4.828125 52.6875 14.390625 62.765625 
Q 23.96875 72.859375 39.109375 72.859375 
Q 49.03125 72.859375 56.984375 68.109375 
Q 64.9375 63.375 69.109375 54.90625 
Q 73.296875 46.4375 73.296875 35.6875 
Q 73.296875 24.8125 68.890625 16.21875 
Q 64.5 7.625 56.4375 3.203125 
Q 48.390625 -1.21875 39.0625 -1.21875 
Q 28.953125 -1.21875 20.984375 3.65625 
Q 13.03125 8.546875 8.921875 16.984375 
Q 4.828125 25.4375 4.828125 34.859375 
z
M 14.59375 34.71875 
Q 14.59375 21.78125 21.546875 14.328125 
Q 28.515625 6.890625 39.015625 6.890625 
Q 49.703125 6.890625 56.609375 14.40625 
Q 63.53125 21.921875 63.53125 35.75 
Q 63.53125 44.484375 60.578125 51 
Q 57.625 57.515625 51.921875 61.109375 
Q 46.234375 64.703125 39.15625 64.703125 
Q 29.109375 64.703125 21.84375 57.78125 
Q 14.59375 50.875 14.59375 34.71875 
z
" id="ArialMT-4f"/>
    <path d="M 7.90625 0 
L 7.90625 71.578125 
L 59.671875 71.578125 
L 59.671875 63.140625 
L 17.390625 63.140625 
L 17.390625 41.21875 
L 56.984375 41.21875 
L 56.984375 32.8125 
L 17.390625 32.8125 
L 17.390625 8.453125 
L 61.328125 8.453125 
L 61.328125 0 
z
" id="ArialMT-45"/>
    <path d="M -0.140625 0 
L 27.34375 71.578125 
L 37.546875 71.578125 
L 66.84375 0 
L 56.0625 0 
L 47.703125 21.6875 
L 17.78125 21.6875 
L 9.90625 0 
z
M 20.515625 29.390625 
L 44.78125 29.390625 
L 37.3125 49.21875 
Q 33.890625 58.25 32.234375 64.0625 
Q 30.859375 57.171875 28.375 50.390625 
z
" id="ArialMT-41"/>
    <path d="M 7.859375 0 
L 7.859375 71.578125 
L 39.59375 71.578125 
Q 49.171875 71.578125 54.140625 69.640625 
Q 59.125 67.71875 62.109375 62.828125 
Q 65.09375 57.953125 65.09375 52.046875 
Q 65.09375 44.4375 60.15625 39.203125 
Q 55.21875 33.984375 44.921875 32.5625 
Q 48.6875 30.765625 50.640625 29 
Q 54.78125 25.203125 58.5 19.484375 
L 70.953125 0 
L 59.03125 0 
L 49.5625 14.890625 
Q 45.40625 21.34375 42.71875 24.75 
Q 40.046875 28.171875 37.921875 29.53125 
Q 35.796875 30.90625 33.59375 31.453125 
Q 31.984375 31.78125 28.328125 31.78125 
L 17.328125 31.78125 
L 17.328125 0 
z
M 17.328125 39.984375 
L 37.703125 39.984375 
Q 44.1875 39.984375 47.84375 41.328125 
Q 51.515625 42.671875 53.421875 45.625 
Q 55.328125 48.578125 55.328125 52.046875 
Q 55.328125 57.125 51.640625 60.390625 
Q 47.953125 63.671875 39.984375 63.671875 
L 17.328125 63.671875 
z
" id="ArialMT-52"/>
    <path d="M 9.03125 41.84375 
L 9.03125 51.859375 
L 19.046875 51.859375 
L 19.046875 41.84375 
z
M 9.03125 0 
L 9.03125 10.015625 
L 19.046875 10.015625 
L 19.046875 0 
z
" id="ArialMT-3a"/>
   </defs>
   <g style="fill:#262626;" transform="translate(112.783375 17.69175)scale(0.144 -0.144)">
    <use xlink:href="#ArialMT-73"/>
    <use x="50" xlink:href="#ArialMT-77"/>
    <use x="122.216797" xlink:href="#ArialMT-61"/>
    <use x="177.832031" xlink:href="#ArialMT-72"/>
    <use x="211.132812" xlink:href="#ArialMT-6d"/>
    <use x="294.433594" xlink:href="#ArialMT-20"/>
    <use x="322.216797" xlink:href="#ArialMT-70"/>
    <use x="377.832031" xlink:href="#ArialMT-6c"/>
    <use x="400.048828" xlink:href="#ArialMT-6f"/>
    <use x="455.664062" xlink:href="#ArialMT-74"/>
    <use x="483.447266" xlink:href="#ArialMT-20"/>
    <use x="511.230469" xlink:href="#ArialMT-6f"/>
    <use x="566.845703" xlink:href="#ArialMT-66"/>
    <use x="594.628906" xlink:href="#ArialMT-20"/>
    <use x="622.412109" xlink:href="#ArialMT-4f"/>
    <use x="700.195312" xlink:href="#ArialMT-70"/>
    <use x="755.810547" xlink:href="#ArialMT-65"/>
    <use x="811.425781" xlink:href="#ArialMT-6e"/>
    <use x="867.041016" xlink:href="#ArialMT-45"/>
    <use x="933.740234" xlink:href="#ArialMT-41"/>
    <use x="1000.439453" xlink:href="#ArialMT-52"/>
    <use x="1072.65625" xlink:href="#ArialMT-3a"/>
    <use x="1100.439453" xlink:href="#ArialMT-20"/>
    <use x="1128.222656" xlink:href="#ArialMT-4c"/>
    <use x="1183.837891" xlink:href="#ArialMT-65"/>
    <use x="1239.453125" xlink:href="#ArialMT-76"/>
    <use x="1289.453125" xlink:href="#ArialMT-65"/>
    <use x="1345.068359" xlink:href="#ArialMT-6c"/>
    <use x="1367.285156" xlink:href="#ArialMT-20"/>
    <use x="1395.068359" xlink:href="#ArialMT-6f"/>
    <use x="1450.683594" xlink:href="#ArialMT-66"/>
    <use x="1478.466797" xlink:href="#ArialMT-20"/>
    <use x="1506.25" xlink:href="#ArialMT-49"/>
    <use x="1534.033203" xlink:href="#ArialMT-6e"/>
    <use x="1589.648438" xlink:href="#ArialMT-74"/>
    <use x="1617.431641" xlink:href="#ArialMT-65"/>
    <use x="1673.046875" xlink:href="#ArialMT-72"/>
    <use x="1706.347656" xlink:href="#ArialMT-65"/>
    <use x="1761.962891" xlink:href="#ArialMT-73"/>
    <use x="1811.962891" xlink:href="#ArialMT-74"/>
   </g>
  </g>
  <g id="legend_1">
   <g id="text_12">
    <!-- IsNativeSpeaker -->
    <defs>
     <path d="M 4.5 23 
L 13.421875 23.78125 
Q 14.0625 18.40625 16.375 14.96875 
Q 18.703125 11.53125 23.578125 9.40625 
Q 28.46875 7.28125 34.578125 7.28125 
Q 39.984375 7.28125 44.140625 8.890625 
Q 48.296875 10.5 50.3125 13.296875 
Q 52.34375 16.109375 52.34375 19.4375 
Q 52.34375 22.796875 50.390625 25.3125 
Q 48.4375 27.828125 43.953125 29.546875 
Q 41.0625 30.671875 31.203125 33.03125 
Q 21.34375 35.40625 17.390625 37.5 
Q 12.25 40.1875 9.734375 44.15625 
Q 7.234375 48.140625 7.234375 53.078125 
Q 7.234375 58.5 10.296875 63.203125 
Q 13.375 67.921875 19.28125 70.359375 
Q 25.203125 72.796875 32.421875 72.796875 
Q 40.375 72.796875 46.453125 70.234375 
Q 52.546875 67.671875 55.8125 62.6875 
Q 59.078125 57.71875 59.328125 51.421875 
L 50.25 50.734375 
Q 49.515625 57.515625 45.28125 60.984375 
Q 41.0625 64.453125 32.8125 64.453125 
Q 24.21875 64.453125 20.28125 61.296875 
Q 16.359375 58.15625 16.359375 53.71875 
Q 16.359375 49.859375 19.140625 47.359375 
Q 21.875 44.875 33.421875 42.265625 
Q 44.96875 39.65625 49.265625 37.703125 
Q 55.515625 34.8125 58.484375 30.390625 
Q 61.46875 25.984375 61.46875 20.21875 
Q 61.46875 14.5 58.203125 9.4375 
Q 54.9375 4.390625 48.796875 1.578125 
Q 42.671875 -1.21875 35.015625 -1.21875 
Q 25.296875 -1.21875 18.71875 1.609375 
Q 12.15625 4.4375 8.421875 10.125 
Q 4.6875 15.828125 4.5 23 
z
" id="ArialMT-53"/>
     <path d="M 6.640625 0 
L 6.640625 71.578125 
L 15.4375 71.578125 
L 15.4375 30.765625 
L 36.234375 51.859375 
L 47.609375 51.859375 
L 27.78125 32.625 
L 49.609375 0 
L 38.765625 0 
L 21.625 26.515625 
L 15.4375 20.5625 
L 15.4375 0 
z
" id="ArialMT-6b"/>
    </defs>
    <g style="fill:#262626;" transform="translate(382.517594 159.292219)scale(0.102 -0.102)">
     <use xlink:href="#ArialMT-49"/>
     <use x="27.783203" xlink:href="#ArialMT-73"/>
     <use x="77.783203" xlink:href="#ArialMT-4e"/>
     <use x="150" xlink:href="#ArialMT-61"/>
     <use x="205.615234" xlink:href="#ArialMT-74"/>
     <use x="233.398438" xlink:href="#ArialMT-69"/>
     <use x="255.615234" xlink:href="#ArialMT-76"/>
     <use x="305.615234" xlink:href="#ArialMT-65"/>
     <use x="361.230469" xlink:href="#ArialMT-53"/>
     <use x="427.929688" xlink:href="#ArialMT-70"/>
     <use x="483.544922" xlink:href="#ArialMT-65"/>
     <use x="539.160156" xlink:href="#ArialMT-61"/>
     <use x="594.775391" xlink:href="#ArialMT-6b"/>
     <use x="644.775391" xlink:href="#ArialMT-65"/>
     <use x="700.390625" xlink:href="#ArialMT-72"/>
    </g>
   </g>
   <g id="PathCollection_6">
    <defs>
     <path d="M 0 3.872983 
C 1.027127 3.872983 2.012324 3.464901 2.738613 2.738613 
C 3.464901 2.012324 3.872983 1.027127 3.872983 0 
C 3.872983 -1.027127 3.464901 -2.012324 2.738613 -2.738613 
C 2.012324 -3.464901 1.027127 -3.872983 0 -3.872983 
C -1.027127 -3.872983 -2.012324 -3.464901 -2.738613 -2.738613 
C -3.464901 -2.012324 -3.872983 -1.027127 -3.872983 0 
C -3.872983 1.027127 -3.464901 2.012324 -2.738613 2.738613 
C -2.012324 3.464901 -1.027127 3.872983 0 3.872983 
z
" id="m9f5679cf81" style="stroke:#4c72b0;"/>
    </defs>
    <g>
     <use style="fill:#4c72b0;stroke:#4c72b0;" x="370.293125" xlink:href="#m9f5679cf81" y="171.805563"/>
    </g>
   </g>
   <g id="text_13">
    <!-- Europ. Non-Native -->
    <defs>
     <path d="M 40.578125 0 
L 40.578125 7.625 
Q 34.515625 -1.171875 24.125 -1.171875 
Q 19.53125 -1.171875 15.546875 0.578125 
Q 11.578125 2.34375 9.640625 5 
Q 7.71875 7.671875 6.9375 11.53125 
Q 6.390625 14.109375 6.390625 19.734375 
L 6.390625 51.859375 
L 15.1875 51.859375 
L 15.1875 23.09375 
Q 15.1875 16.21875 15.71875 13.8125 
Q 16.546875 10.359375 19.234375 8.375 
Q 21.921875 6.390625 25.875 6.390625 
Q 29.828125 6.390625 33.296875 8.421875 
Q 36.765625 10.453125 38.203125 13.9375 
Q 39.65625 17.4375 39.65625 24.078125 
L 39.65625 51.859375 
L 48.4375 51.859375 
L 48.4375 0 
z
" id="ArialMT-75"/>
     <path d="M 3.171875 21.484375 
L 3.171875 30.328125 
L 30.171875 30.328125 
L 30.171875 21.484375 
z
" id="ArialMT-2d"/>
    </defs>
    <g style="fill:#262626;" transform="translate(390.093125 174.693062)scale(0.11 -0.11)">
     <use xlink:href="#ArialMT-45"/>
     <use x="66.699219" xlink:href="#ArialMT-75"/>
     <use x="122.314453" xlink:href="#ArialMT-72"/>
     <use x="155.615234" xlink:href="#ArialMT-6f"/>
     <use x="211.230469" xlink:href="#ArialMT-70"/>
     <use x="266.845703" xlink:href="#ArialMT-2e"/>
     <use x="294.628906" xlink:href="#ArialMT-20"/>
     <use x="322.412109" xlink:href="#ArialMT-4e"/>
     <use x="394.628906" xlink:href="#ArialMT-6f"/>
     <use x="450.244141" xlink:href="#ArialMT-6e"/>
     <use x="505.859375" xlink:href="#ArialMT-2d"/>
     <use x="539.160156" xlink:href="#ArialMT-4e"/>
     <use x="611.376953" xlink:href="#ArialMT-61"/>
     <use x="666.992188" xlink:href="#ArialMT-74"/>
     <use x="694.775391" xlink:href="#ArialMT-69"/>
     <use x="716.992188" xlink:href="#ArialMT-76"/>
     <use x="766.992188" xlink:href="#ArialMT-65"/>
    </g>
   </g>
   <g id="PathCollection_7">
    <defs>
     <path d="M 0 3.872983 
C 1.027127 3.872983 2.012324 3.464901 2.738613 2.738613 
C 3.464901 2.012324 3.872983 1.027127 3.872983 0 
C 3.872983 -1.027127 3.464901 -2.012324 2.738613 -2.738613 
C 2.012324 -3.464901 1.027127 -3.872983 0 -3.872983 
C -1.027127 -3.872983 -2.012324 -3.464901 -2.738613 -2.738613 
C -3.464901 -2.012324 -3.872983 -1.027127 -3.872983 0 
C -3.872983 1.027127 -3.464901 2.012324 -2.738613 2.738613 
C -2.012324 3.464901 -1.027127 3.872983 0 3.872983 
z
" id="mef66b142a5" style="stroke:#dd8452;"/>
    </defs>
    <g>
     <use style="fill:#dd8452;stroke:#dd8452;" x="370.293125" xlink:href="#mef66b142a5" y="187.499469"/>
    </g>
   </g>
   <g id="text_14">
    <!-- Native Speaker -->
    <g style="fill:#262626;" transform="translate(390.093125 190.386969)scale(0.11 -0.11)">
     <use xlink:href="#ArialMT-4e"/>
     <use x="72.216797" xlink:href="#ArialMT-61"/>
     <use x="127.832031" xlink:href="#ArialMT-74"/>
     <use x="155.615234" xlink:href="#ArialMT-69"/>
     <use x="177.832031" xlink:href="#ArialMT-76"/>
     <use x="227.832031" xlink:href="#ArialMT-65"/>
     <use x="283.447266" xlink:href="#ArialMT-20"/>
     <use x="311.230469" xlink:href="#ArialMT-53"/>
     <use x="377.929688" xlink:href="#ArialMT-70"/>
     <use x="433.544922" xlink:href="#ArialMT-65"/>
     <use x="489.160156" xlink:href="#ArialMT-61"/>
     <use x="544.775391" xlink:href="#ArialMT-6b"/>
     <use x="594.775391" xlink:href="#ArialMT-65"/>
     <use x="650.390625" xlink:href="#ArialMT-72"/>
    </g>
   </g>
   <g id="PathCollection_8">
    <defs>
     <path d="M 0 3.872983 
C 1.027127 3.872983 2.012324 3.464901 2.738613 2.738613 
C 3.464901 2.012324 3.872983 1.027127 3.872983 0 
C 3.872983 -1.027127 3.464901 -2.012324 2.738613 -2.738613 
C 2.012324 -3.464901 1.027127 -3.872983 0 -3.872983 
C -1.027127 -3.872983 -2.012324 -3.464901 -2.738613 -2.738613 
C -3.464901 -2.012324 -3.872983 -1.027127 -3.872983 0 
C -3.872983 1.027127 -3.464901 2.012324 -2.738613 2.738613 
C -2.012324 3.464901 -1.027127 3.872983 0 3.872983 
z
" id="mbf9a4a6808" style="stroke:#55a868;"/>
    </defs>
    <g>
     <use style="fill:#55a868;stroke:#55a868;" x="370.293125" xlink:href="#mbf9a4a6808" y="203.059313"/>
    </g>
   </g>
   <g id="text_15">
    <!-- Asian Non-Native -->
    <g style="fill:#262626;" transform="translate(390.093125 205.946812)scale(0.11 -0.11)">
     <use xlink:href="#ArialMT-41"/>
     <use x="66.699219" xlink:href="#ArialMT-73"/>
     <use x="116.699219" xlink:href="#ArialMT-69"/>
     <use x="138.916016" xlink:href="#ArialMT-61"/>
     <use x="194.53125" xlink:href="#ArialMT-6e"/>
     <use x="250.146484" xlink:href="#ArialMT-20"/>
     <use x="277.929688" xlink:href="#ArialMT-4e"/>
     <use x="350.146484" xlink:href="#ArialMT-6f"/>
     <use x="405.761719" xlink:href="#ArialMT-6e"/>
     <use x="461.376953" xlink:href="#ArialMT-2d"/>
     <use x="494.677734" xlink:href="#ArialMT-4e"/>
     <use x="566.894531" xlink:href="#ArialMT-61"/>
     <use x="622.509766" xlink:href="#ArialMT-74"/>
     <use x="650.292969" xlink:href="#ArialMT-69"/>
     <use x="672.509766" xlink:href="#ArialMT-76"/>
     <use x="722.509766" xlink:href="#ArialMT-65"/>
    </g>
   </g>
  </g>
 </g>
 <defs>
  <clipPath id="p1925b917f2">
   <rect height="277.493125" width="284.239494" x="70.855756" y="36"/>
  </clipPath>
 </defs>
</svg>
