<?xml version="1.0" encoding="utf-8" standalone="no"?>
<!DOCTYPE svg PUBLIC "-//W3C//DTD SVG 1.1//EN"
  "http://www.w3.org/Graphics/SVG/1.1/DTD/svg11.dtd">
<!-- Created with matplotlib (http://matplotlib.org/) -->
<svg height="288pt" version="1.1" viewBox="0 0 432 288" width="432pt" xmlns="http://www.w3.org/2000/svg" xmlns:xlink="http://www.w3.org/1999/xlink">
 <defs>
  <style type="text/css">
*{stroke-linecap:butt;stroke-linejoin:round;}
  </style>
 </defs>
 <g id="figure_1">
  <g id="patch_1">
   <path d="M 0 288 
L 432 288 
L 432 0 
L 0 0 
z
" style="fill:#ffffff;"/>
  </g>
  <g id="axes_1">
   <g id="patch_2">
    <path d="M 54 252 
L 388.8 252 
L 388.8 34.56 
L 54 34.56 
z
" style="fill:#eaeaf2;"/>
   </g>
   <g id="matplotlib.axis_1">
    <g id="xtick_1">
     <g id="line2d_1">
      <path clip-path="url(#p2631cfa0f5)" d="M 95.820106 252 
L 95.820106 34.56 
" style="fill:none;stroke:#ffffff;stroke-linecap:round;"/>
     </g>
     <g id="text_1">
      <!-- 0.00 -->
      <defs>
       <path d="M 4.15625 35.296875 
Q 4.15625 48 6.765625 55.734375 
Q 9.375 63.484375 14.515625 67.671875 
Q 19.671875 71.875 27.484375 71.875 
Q 33.25 71.875 37.59375 69.546875 
Q 41.9375 67.234375 44.765625 62.859375 
Q 47.609375 58.5 49.21875 52.21875 
Q 50.828125 45.953125 50.828125 35.296875 
Q 50.828125 22.703125 48.234375 14.96875 
Q 45.65625 7.234375 40.5 3 
Q 35.359375 -1.21875 27.484375 -1.21875 
Q 17.140625 -1.21875 11.234375 6.203125 
Q 4.15625 15.140625 4.15625 35.296875 
z
M 13.1875 35.296875 
Q 13.1875 17.671875 17.3125 11.828125 
Q 21.4375 6 27.484375 6 
Q 33.546875 6 37.671875 11.859375 
Q 41.796875 17.71875 41.796875 35.296875 
Q 41.796875 52.984375 37.671875 58.78125 
Q 33.546875 64.59375 27.390625 64.59375 
Q 21.34375 64.59375 17.71875 59.46875 
Q 13.1875 52.9375 13.1875 35.296875 
z
" id="ArialMT-30"/>
       <path d="M 9.078125 0 
L 9.078125 10.015625 
L 19.09375 10.015625 
L 19.09375 0 
z
" id="ArialMT-2e"/>
      </defs>
      <g style="fill:#262626;" transform="translate(85.116591 269.373594)scale(0.11 -0.11)">
       <use xlink:href="#ArialMT-30"/>
       <use x="55.615234" xlink:href="#ArialMT-2e"/>
       <use x="83.398438" xlink:href="#ArialMT-30"/>
       <use x="139.013672" xlink:href="#ArialMT-30"/>
      </g>
     </g>
    </g>
    <g id="xtick_2">
     <g id="line2d_2">
      <path clip-path="url(#p2631cfa0f5)" d="M 166.300128 252 
L 166.300128 34.56 
" style="fill:none;stroke:#ffffff;stroke-linecap:round;"/>
     </g>
     <g id="text_2">
      <!-- 0.05 -->
      <defs>
       <path d="M 4.15625 18.75 
L 13.375 19.53125 
Q 14.40625 12.796875 18.140625 9.390625 
Q 21.875 6 27.15625 6 
Q 33.5 6 37.890625 10.78125 
Q 42.28125 15.578125 42.28125 23.484375 
Q 42.28125 31 38.0625 35.34375 
Q 33.84375 39.703125 27 39.703125 
Q 22.75 39.703125 19.328125 37.765625 
Q 15.921875 35.84375 13.96875 32.765625 
L 5.71875 33.84375 
L 12.640625 70.609375 
L 48.25 70.609375 
L 48.25 62.203125 
L 19.671875 62.203125 
L 15.828125 42.96875 
Q 22.265625 47.46875 29.34375 47.46875 
Q 38.71875 47.46875 45.15625 40.96875 
Q 51.609375 34.46875 51.609375 24.265625 
Q 51.609375 14.546875 45.953125 7.46875 
Q 39.0625 -1.21875 27.15625 -1.21875 
Q 17.390625 -1.21875 11.203125 4.25 
Q 5.03125 9.71875 4.15625 18.75 
z
" id="ArialMT-35"/>
      </defs>
      <g style="fill:#262626;" transform="translate(155.596613 269.373594)scale(0.11 -0.11)">
       <use xlink:href="#ArialMT-30"/>
       <use x="55.615234" xlink:href="#ArialMT-2e"/>
       <use x="83.398438" xlink:href="#ArialMT-30"/>
       <use x="139.013672" xlink:href="#ArialMT-35"/>
      </g>
     </g>
    </g>
    <g id="xtick_3">
     <g id="line2d_3">
      <path clip-path="url(#p2631cfa0f5)" d="M 236.78015 252 
L 236.78015 34.56 
" style="fill:none;stroke:#ffffff;stroke-linecap:round;"/>
     </g>
     <g id="text_3">
      <!-- 0.10 -->
      <defs>
       <path d="M 37.25 0 
L 28.46875 0 
L 28.46875 56 
Q 25.296875 52.984375 20.140625 49.953125 
Q 14.984375 46.921875 10.890625 45.40625 
L 10.890625 53.90625 
Q 18.265625 57.375 23.78125 62.296875 
Q 29.296875 67.234375 31.59375 71.875 
L 37.25 71.875 
z
" id="ArialMT-31"/>
      </defs>
      <g style="fill:#262626;" transform="translate(226.076635 269.373594)scale(0.11 -0.11)">
       <use xlink:href="#ArialMT-30"/>
       <use x="55.615234" xlink:href="#ArialMT-2e"/>
       <use x="83.398438" xlink:href="#ArialMT-31"/>
       <use x="139.013672" xlink:href="#ArialMT-30"/>
      </g>
     </g>
    </g>
    <g id="xtick_4">
     <g id="line2d_4">
      <path clip-path="url(#p2631cfa0f5)" d="M 307.260172 252 
L 307.260172 34.56 
" style="fill:none;stroke:#ffffff;stroke-linecap:round;"/>
     </g>
     <g id="text_4">
      <!-- 0.15 -->
      <g style="fill:#262626;" transform="translate(296.556657 269.373594)scale(0.11 -0.11)">
       <use xlink:href="#ArialMT-30"/>
       <use x="55.615234" xlink:href="#ArialMT-2e"/>
       <use x="83.398438" xlink:href="#ArialMT-31"/>
       <use x="139.013672" xlink:href="#ArialMT-35"/>
      </g>
     </g>
    </g>
    <g id="xtick_5">
     <g id="line2d_5">
      <path clip-path="url(#p2631cfa0f5)" d="M 377.740194 252 
L 377.740194 34.56 
" style="fill:none;stroke:#ffffff;stroke-linecap:round;"/>
     </g>
     <g id="text_5">
      <!-- 0.20 -->
      <defs>
       <path d="M 50.34375 8.453125 
L 50.34375 0 
L 3.03125 0 
Q 2.9375 3.171875 4.046875 6.109375 
Q 5.859375 10.9375 9.828125 15.625 
Q 13.8125 20.3125 21.34375 26.46875 
Q 33.015625 36.03125 37.109375 41.625 
Q 41.21875 47.21875 41.21875 52.203125 
Q 41.21875 57.421875 37.46875 61 
Q 33.734375 64.59375 27.734375 64.59375 
Q 21.390625 64.59375 17.578125 60.78125 
Q 13.765625 56.984375 13.71875 50.25 
L 4.6875 51.171875 
Q 5.609375 61.28125 11.65625 66.578125 
Q 17.71875 71.875 27.9375 71.875 
Q 38.234375 71.875 44.234375 66.15625 
Q 50.25 60.453125 50.25 52 
Q 50.25 47.703125 48.484375 43.546875 
Q 46.734375 39.40625 42.65625 34.8125 
Q 38.578125 30.21875 29.109375 22.21875 
Q 21.1875 15.578125 18.9375 13.203125 
Q 16.703125 10.84375 15.234375 8.453125 
z
" id="ArialMT-32"/>
      </defs>
      <g style="fill:#262626;" transform="translate(367.036679 269.373594)scale(0.11 -0.11)">
       <use xlink:href="#ArialMT-30"/>
       <use x="55.615234" xlink:href="#ArialMT-2e"/>
       <use x="83.398438" xlink:href="#ArialMT-32"/>
       <use x="139.013672" xlink:href="#ArialMT-30"/>
      </g>
     </g>
    </g>
   </g>
   <g id="matplotlib.axis_2">
    <g id="ytick_1">
     <g id="line2d_6">
      <path clip-path="url(#p2631cfa0f5)" d="M 54 252 
L 388.8 252 
" style="fill:none;stroke:#ffffff;stroke-linecap:round;"/>
     </g>
     <g id="text_6">
      <!-- 0.0 -->
      <g style="fill:#262626;" transform="translate(29.21 255.936797)scale(0.11 -0.11)">
       <use xlink:href="#ArialMT-30"/>
       <use x="55.615234" xlink:href="#ArialMT-2e"/>
       <use x="83.398438" xlink:href="#ArialMT-30"/>
      </g>
     </g>
    </g>
    <g id="ytick_2">
     <g id="line2d_7">
      <path clip-path="url(#p2631cfa0f5)" d="M 54 224.574021 
L 388.8 224.574021 
" style="fill:none;stroke:#ffffff;stroke-linecap:round;"/>
     </g>
     <g id="text_7">
      <!-- 2.5 -->
      <g style="fill:#262626;" transform="translate(29.21 228.510818)scale(0.11 -0.11)">
       <use xlink:href="#ArialMT-32"/>
       <use x="55.615234" xlink:href="#ArialMT-2e"/>
       <use x="83.398438" xlink:href="#ArialMT-35"/>
      </g>
     </g>
    </g>
    <g id="ytick_3">
     <g id="line2d_8">
      <path clip-path="url(#p2631cfa0f5)" d="M 54 197.148042 
L 388.8 197.148042 
" style="fill:none;stroke:#ffffff;stroke-linecap:round;"/>
     </g>
     <g id="text_8">
      <!-- 5.0 -->
      <g style="fill:#262626;" transform="translate(29.21 201.084839)scale(0.11 -0.11)">
       <use xlink:href="#ArialMT-35"/>
       <use x="55.615234" xlink:href="#ArialMT-2e"/>
       <use x="83.398438" xlink:href="#ArialMT-30"/>
      </g>
     </g>
    </g>
    <g id="ytick_4">
     <g id="line2d_9">
      <path clip-path="url(#p2631cfa0f5)" d="M 54 169.722063 
L 388.8 169.722063 
" style="fill:none;stroke:#ffffff;stroke-linecap:round;"/>
     </g>
     <g id="text_9">
      <!-- 7.5 -->
      <defs>
       <path d="M 4.734375 62.203125 
L 4.734375 70.65625 
L 51.078125 70.65625 
L 51.078125 63.8125 
Q 44.234375 56.546875 37.515625 44.484375 
Q 30.8125 32.421875 27.15625 19.671875 
Q 24.515625 10.6875 23.78125 0 
L 14.75 0 
Q 14.890625 8.453125 18.0625 20.40625 
Q 21.234375 32.375 27.171875 43.484375 
Q 33.109375 54.59375 39.796875 62.203125 
z
" id="ArialMT-37"/>
      </defs>
      <g style="fill:#262626;" transform="translate(29.21 173.65886)scale(0.11 -0.11)">
       <use xlink:href="#ArialMT-37"/>
       <use x="55.615234" xlink:href="#ArialMT-2e"/>
       <use x="83.398438" xlink:href="#ArialMT-35"/>
      </g>
     </g>
    </g>
    <g id="ytick_5">
     <g id="line2d_10">
      <path clip-path="url(#p2631cfa0f5)" d="M 54 142.296084 
L 388.8 142.296084 
" style="fill:none;stroke:#ffffff;stroke-linecap:round;"/>
     </g>
     <g id="text_10">
      <!-- 10.0 -->
      <g style="fill:#262626;" transform="translate(23.092969 146.232881)scale(0.11 -0.11)">
       <use xlink:href="#ArialMT-31"/>
       <use x="55.615234" xlink:href="#ArialMT-30"/>
       <use x="111.230469" xlink:href="#ArialMT-2e"/>
       <use x="139.013672" xlink:href="#ArialMT-30"/>
      </g>
     </g>
    </g>
    <g id="ytick_6">
     <g id="line2d_11">
      <path clip-path="url(#p2631cfa0f5)" d="M 54 114.870105 
L 388.8 114.870105 
" style="fill:none;stroke:#ffffff;stroke-linecap:round;"/>
     </g>
     <g id="text_11">
      <!-- 12.5 -->
      <g style="fill:#262626;" transform="translate(23.092969 118.806902)scale(0.11 -0.11)">
       <use xlink:href="#ArialMT-31"/>
       <use x="55.615234" xlink:href="#ArialMT-32"/>
       <use x="111.230469" xlink:href="#ArialMT-2e"/>
       <use x="139.013672" xlink:href="#ArialMT-35"/>
      </g>
     </g>
    </g>
    <g id="ytick_7">
     <g id="line2d_12">
      <path clip-path="url(#p2631cfa0f5)" d="M 54 87.444126 
L 388.8 87.444126 
" style="fill:none;stroke:#ffffff;stroke-linecap:round;"/>
     </g>
     <g id="text_12">
      <!-- 15.0 -->
      <g style="fill:#262626;" transform="translate(23.092969 91.380923)scale(0.11 -0.11)">
       <use xlink:href="#ArialMT-31"/>
       <use x="55.615234" xlink:href="#ArialMT-35"/>
       <use x="111.230469" xlink:href="#ArialMT-2e"/>
       <use x="139.013672" xlink:href="#ArialMT-30"/>
      </g>
     </g>
    </g>
    <g id="ytick_8">
     <g id="line2d_13">
      <path clip-path="url(#p2631cfa0f5)" d="M 54 60.018147 
L 388.8 60.018147 
" style="fill:none;stroke:#ffffff;stroke-linecap:round;"/>
     </g>
     <g id="text_13">
      <!-- 17.5 -->
      <g style="fill:#262626;" transform="translate(23.092969 63.954944)scale(0.11 -0.11)">
       <use xlink:href="#ArialMT-31"/>
       <use x="55.615234" xlink:href="#ArialMT-37"/>
       <use x="111.230469" xlink:href="#ArialMT-2e"/>
       <use x="139.013672" xlink:href="#ArialMT-35"/>
      </g>
     </g>
    </g>
   </g>
   <g id="PolyCollection_1">
    <defs>
     <path d="M 69.218182 -36.089653 
L 69.218182 -36 
L 71.614746 -36 
L 74.01131 -36 
L 76.407874 -36 
L 78.804438 -36 
L 81.201002 -36 
L 83.597566 -36 
L 85.99413 -36 
L 88.390694 -36 
L 90.787258 -36 
L 93.183822 -36 
L 95.580387 -36 
L 97.976951 -36 
L 100.373515 -36 
L 102.770079 -36 
L 105.166643 -36 
L 107.563207 -36 
L 109.959771 -36 
L 112.356335 -36 
L 114.752899 -36 
L 117.149463 -36 
L 119.546027 -36 
L 121.942591 -36 
L 124.339155 -36 
L 126.735719 -36 
L 129.132283 -36 
L 131.528848 -36 
L 133.925412 -36 
L 136.321976 -36 
L 138.71854 -36 
L 141.115104 -36 
L 143.511668 -36 
L 145.908232 -36 
L 148.304796 -36 
L 150.70136 -36 
L 153.097924 -36 
L 155.494488 -36 
L 157.891052 -36 
L 160.287616 -36 
L 162.68418 -36 
L 165.080744 -36 
L 167.477309 -36 
L 169.873873 -36 
L 172.270437 -36 
L 174.667001 -36 
L 177.063565 -36 
L 179.460129 -36 
L 181.856693 -36 
L 184.253257 -36 
L 186.649821 -36 
L 189.046385 -36 
L 191.442949 -36 
L 193.839513 -36 
L 196.236077 -36 
L 198.632641 -36 
L 201.029205 -36 
L 203.42577 -36 
L 205.822334 -36 
L 208.218898 -36 
L 210.615462 -36 
L 213.012026 -36 
L 215.40859 -36 
L 217.805154 -36 
L 220.201718 -36 
L 222.598282 -36 
L 224.994846 -36 
L 227.39141 -36 
L 229.787974 -36 
L 232.184538 -36 
L 234.581102 -36 
L 236.977666 -36 
L 239.37423 -36 
L 241.770795 -36 
L 244.167359 -36 
L 246.563923 -36 
L 248.960487 -36 
L 251.357051 -36 
L 253.753615 -36 
L 256.150179 -36 
L 258.546743 -36 
L 260.943307 -36 
L 263.339871 -36 
L 265.736435 -36 
L 268.132999 -36 
L 270.529563 -36 
L 272.926127 -36 
L 275.322691 -36 
L 277.719256 -36 
L 280.11582 -36 
L 282.512384 -36 
L 284.908948 -36 
L 287.305512 -36 
L 289.702076 -36 
L 292.09864 -36 
L 294.495204 -36 
L 296.891768 -36 
L 299.288332 -36 
L 301.684896 -36 
L 304.08146 -36 
L 306.478024 -36 
L 308.874588 -36 
L 311.271152 -36 
L 313.667717 -36 
L 316.064281 -36 
L 318.460845 -36 
L 320.857409 -36 
L 323.253973 -36 
L 325.650537 -36 
L 328.047101 -36 
L 330.443665 -36 
L 332.840229 -36 
L 335.236793 -36 
L 337.633357 -36 
L 340.029921 -36 
L 342.426485 -36 
L 344.823049 -36 
L 347.219613 -36 
L 349.616178 -36 
L 352.012742 -36 
L 354.409306 -36 
L 356.80587 -36 
L 359.202434 -36 
L 361.598998 -36 
L 363.995562 -36 
L 366.392126 -36 
L 368.78869 -36 
L 371.185254 -36 
L 373.581818 -36 
L 373.581818 -36.050582 
L 373.581818 -36.050582 
L 371.185254 -36.048322 
L 368.78869 -36.076425 
L 366.392126 -36.139207 
L 363.995562 -36.247863 
L 361.598998 -36.416111 
L 359.202434 -36.654788 
L 356.80587 -36.965753 
L 354.409306 -37.336722 
L 352.012742 -37.739313 
L 349.616178 -38.132125 
L 347.219613 -38.468845 
L 344.823049 -38.70924 
L 342.426485 -38.829494 
L 340.029921 -38.828656 
L 337.633357 -38.729532 
L 335.236793 -38.574208 
L 332.840229 -38.415458 
L 330.443665 -38.305685 
L 328.047101 -38.2853 
L 325.650537 -38.373117 
L 323.253973 -38.561936 
L 320.857409 -38.821849 
L 318.460845 -39.111497 
L 316.064281 -39.394021 
L 313.667717 -39.65174 
L 311.271152 -39.893207 
L 308.874588 -40.14892 
L 306.478024 -40.456628 
L 304.08146 -40.841768 
L 301.684896 -41.301017 
L 299.288332 -41.795945 
L 296.891768 -42.259865 
L 294.495204 -42.615982 
L 292.09864 -42.801351 
L 289.702076 -42.790074 
L 287.305512 -42.610355 
L 284.908948 -42.351757 
L 282.512384 -42.160157 
L 280.11582 -42.218569 
L 277.719256 -42.713536 
L 275.322691 -43.79022 
L 272.926127 -45.504736 
L 270.529563 -47.78756 
L 268.132999 -50.433934 
L 265.736435 -53.132891 
L 263.339871 -55.534981 
L 260.943307 -57.343252 
L 258.546743 -58.399422 
L 256.150179 -58.734578 
L 253.753615 -58.564368 
L 251.357051 -58.228883 
L 248.960487 -58.098754 
L 246.563923 -58.481737 
L 244.167359 -59.562489 
L 241.770795 -61.39281 
L 239.37423 -63.927223 
L 236.977666 -67.079965 
L 234.581102 -70.773621 
L 232.184538 -74.959548 
L 229.787974 -79.609751 
L 227.39141 -84.697079 
L 224.994846 -90.185099 
L 222.598282 -96.038857 
L 220.201718 -102.250201 
L 217.805154 -108.858014 
L 215.40859 -115.942622 
L 213.012026 -123.585649 
L 210.615462 -131.805497 
L 208.218898 -140.495506 
L 205.822334 -149.398293 
L 203.42577 -158.140875 
L 201.029205 -166.331697 
L 198.632641 -173.690699 
L 196.236077 -180.161061 
L 193.839513 -185.950101 
L 191.442949 -191.471659 
L 189.046385 -197.203537 
L 186.649821 -203.511125 
L 184.253257 -210.503272 
L 181.856693 -217.972128 
L 179.460129 -225.433771 
L 177.063565 -232.248161 
L 174.667001 -237.77139 
L 172.270437 -241.488084 
L 169.873873 -243.085714 
L 167.477309 -242.457391 
L 165.080744 -239.64586 
L 162.68418 -234.760471 
L 160.287616 -227.906058 
L 157.891052 -219.155777 
L 155.494488 -208.580242 
L 153.097924 -196.318542 
L 150.70136 -182.653888 
L 148.304796 -168.050107 
L 145.908232 -153.120992 
L 143.511668 -138.536265 
L 141.115104 -124.898739 
L 138.71854 -112.64006 
L 136.321976 -101.970957 
L 133.925412 -92.894785 
L 131.528848 -85.266838 
L 129.132283 -78.869865 
L 126.735719 -73.480473 
L 124.339155 -68.913899 
L 121.942591 -65.045615 
L 119.546027 -61.812712 
L 117.149463 -59.197964 
L 114.752899 -57.200009 
L 112.356335 -55.796366 
L 109.959771 -54.910236 
L 107.563207 -54.393365 
L 105.166643 -54.033774 
L 102.770079 -53.589431 
L 100.373515 -52.839834 
L 97.976951 -51.639963 
L 95.580387 -49.95818 
L 93.183822 -47.883443 
L 90.787258 -45.597723 
L 88.390694 -43.322869 
L 85.99413 -41.261251 
L 83.597566 -39.550755 
L 81.201002 -38.246723 
L 78.804438 -37.330906 
L 76.407874 -36.737422 
L 74.01131 -36.382354 
L 71.614746 -36.186839 
L 69.218182 -36.089653 
z
" id="m75029fba3e" style="stroke:#ffffff;stroke-opacity:0.25;"/>
    </defs>
    <g clip-path="url(#p2631cfa0f5)">
     <use style="fill:#4c72b0;fill-opacity:0.25;stroke:#ffffff;stroke-opacity:0.25;" x="0" xlink:href="#m75029fba3e" y="288"/>
    </g>
   </g>
   <g id="line2d_14">
    <path clip-path="url(#p2631cfa0f5)" d="M 69.218182 251.910347 
L 74.01131 251.617646 
L 76.407874 251.262578 
L 78.804438 250.669094 
L 81.201002 249.753277 
L 83.597566 248.449245 
L 85.99413 246.738749 
L 88.390694 244.677131 
L 93.183822 240.116557 
L 95.580387 238.04182 
L 97.976951 236.360037 
L 100.373515 235.160166 
L 102.770079 234.410569 
L 109.959771 233.089764 
L 112.356335 232.203634 
L 114.752899 230.799991 
L 117.149463 228.802036 
L 119.546027 226.187288 
L 121.942591 222.954385 
L 124.339155 219.086101 
L 126.735719 214.519527 
L 129.132283 209.130135 
L 131.528848 202.733162 
L 133.925412 195.105215 
L 136.321976 186.029043 
L 138.71854 175.35994 
L 141.115104 163.101261 
L 143.511668 149.463735 
L 153.097924 91.681458 
L 155.494488 79.419758 
L 157.891052 68.844223 
L 160.287616 60.093942 
L 162.68418 53.239529 
L 165.080744 48.35414 
L 167.477309 45.542609 
L 169.873873 44.914286 
L 172.270437 46.511916 
L 174.667001 50.22861 
L 177.063565 55.751839 
L 179.460129 62.566229 
L 184.253257 77.496728 
L 186.649821 84.488875 
L 189.046385 90.796463 
L 196.236077 107.838939 
L 198.632641 114.309301 
L 201.029205 121.668303 
L 203.42577 129.859125 
L 213.012026 164.414351 
L 215.40859 172.057378 
L 217.805154 179.141986 
L 220.201718 185.749799 
L 222.598282 191.961143 
L 224.994846 197.814901 
L 227.39141 203.302921 
L 229.787974 208.390249 
L 232.184538 213.040452 
L 234.581102 217.226379 
L 236.977666 220.920035 
L 239.37423 224.072777 
L 241.770795 226.60719 
L 244.167359 228.437511 
L 246.563923 229.518263 
L 248.960487 229.901246 
L 251.357051 229.771117 
L 253.753615 229.435632 
L 256.150179 229.265422 
L 258.546743 229.600578 
L 260.943307 230.656748 
L 263.339871 232.465019 
L 265.736435 234.867109 
L 270.529563 240.21244 
L 272.926127 242.495264 
L 275.322691 244.20978 
L 277.719256 245.286464 
L 280.11582 245.781431 
L 282.512384 245.839843 
L 289.702076 245.209926 
L 292.09864 245.198649 
L 294.495204 245.384018 
L 299.288332 246.204055 
L 304.08146 247.158232 
L 308.874588 247.85108 
L 325.650537 249.626883 
L 330.443665 249.694315 
L 342.426485 249.170506 
L 344.823049 249.29076 
L 349.616178 249.867875 
L 359.202434 251.345212 
L 363.995562 251.752137 
L 368.78869 251.923575 
L 373.581818 251.949418 
L 373.581818 251.949418 
" style="fill:none;stroke:#4c72b0;stroke-linecap:round;stroke-width:1.5;"/>
   </g>
   <g id="patch_3">
    <path d="M 54 252 
L 54 34.56 
" style="fill:none;stroke:#ffffff;stroke-linecap:square;stroke-linejoin:miter;stroke-width:1.25;"/>
   </g>
   <g id="patch_4">
    <path d="M 388.8 252 
L 388.8 34.56 
" style="fill:none;stroke:#ffffff;stroke-linecap:square;stroke-linejoin:miter;stroke-width:1.25;"/>
   </g>
   <g id="patch_5">
    <path d="M 54 252 
L 388.8 252 
" style="fill:none;stroke:#ffffff;stroke-linecap:square;stroke-linejoin:miter;stroke-width:1.25;"/>
   </g>
   <g id="patch_6">
    <path d="M 54 34.56 
L 388.8 34.56 
" style="fill:none;stroke:#ffffff;stroke-linecap:square;stroke-linejoin:miter;stroke-width:1.25;"/>
   </g>
   <g id="text_14">
    <!-- Distribution of OpenEAR: Affect Aff_Neutral -->
    <defs>
     <path d="M 7.71875 0 
L 7.71875 71.578125 
L 32.375 71.578125 
Q 40.71875 71.578125 45.125 70.5625 
Q 51.265625 69.140625 55.609375 65.4375 
Q 61.28125 60.640625 64.078125 53.1875 
Q 66.890625 45.75 66.890625 36.1875 
Q 66.890625 28.03125 64.984375 21.734375 
Q 63.09375 15.4375 60.109375 11.296875 
Q 57.125 7.171875 53.578125 4.796875 
Q 50.046875 2.4375 45.046875 1.21875 
Q 40.046875 0 33.546875 0 
z
M 17.1875 8.453125 
L 32.46875 8.453125 
Q 39.546875 8.453125 43.578125 9.765625 
Q 47.609375 11.078125 50 13.484375 
Q 53.375 16.84375 55.25 22.53125 
Q 57.125 28.21875 57.125 36.328125 
Q 57.125 47.5625 53.4375 53.59375 
Q 49.75 59.625 44.484375 61.671875 
Q 40.671875 63.140625 32.234375 63.140625 
L 17.1875 63.140625 
z
" id="ArialMT-44"/>
     <path d="M 6.640625 61.46875 
L 6.640625 71.578125 
L 15.4375 71.578125 
L 15.4375 61.46875 
z
M 6.640625 0 
L 6.640625 51.859375 
L 15.4375 51.859375 
L 15.4375 0 
z
" id="ArialMT-69"/>
     <path d="M 3.078125 15.484375 
L 11.765625 16.84375 
Q 12.5 11.625 15.84375 8.84375 
Q 19.1875 6.0625 25.203125 6.0625 
Q 31.25 6.0625 34.171875 8.515625 
Q 37.109375 10.984375 37.109375 14.3125 
Q 37.109375 17.28125 34.515625 19 
Q 32.71875 20.171875 25.53125 21.96875 
Q 15.875 24.421875 12.140625 26.203125 
Q 8.40625 27.984375 6.46875 31.125 
Q 4.546875 34.28125 4.546875 38.09375 
Q 4.546875 41.546875 6.125 44.5 
Q 7.71875 47.46875 10.453125 49.421875 
Q 12.5 50.921875 16.03125 51.96875 
Q 19.578125 53.03125 23.640625 53.03125 
Q 29.734375 53.03125 34.34375 51.265625 
Q 38.96875 49.515625 41.15625 46.5 
Q 43.359375 43.5 44.1875 38.484375 
L 35.59375 37.3125 
Q 35.015625 41.3125 32.203125 43.546875 
Q 29.390625 45.796875 24.265625 45.796875 
Q 18.21875 45.796875 15.625 43.796875 
Q 13.03125 41.796875 13.03125 39.109375 
Q 13.03125 37.40625 14.109375 36.03125 
Q 15.1875 34.625 17.484375 33.6875 
Q 18.796875 33.203125 25.25 31.453125 
Q 34.578125 28.953125 38.25 27.359375 
Q 41.9375 25.78125 44.03125 22.75 
Q 46.140625 19.734375 46.140625 15.234375 
Q 46.140625 10.84375 43.578125 6.953125 
Q 41.015625 3.078125 36.171875 0.953125 
Q 31.34375 -1.171875 25.25 -1.171875 
Q 15.140625 -1.171875 9.84375 3.03125 
Q 4.546875 7.234375 3.078125 15.484375 
z
" id="ArialMT-73"/>
     <path d="M 25.78125 7.859375 
L 27.046875 0.09375 
Q 23.34375 -0.6875 20.40625 -0.6875 
Q 15.625 -0.6875 12.984375 0.828125 
Q 10.359375 2.34375 9.28125 4.8125 
Q 8.203125 7.28125 8.203125 15.1875 
L 8.203125 45.015625 
L 1.765625 45.015625 
L 1.765625 51.859375 
L 8.203125 51.859375 
L 8.203125 64.703125 
L 16.9375 69.96875 
L 16.9375 51.859375 
L 25.78125 51.859375 
L 25.78125 45.015625 
L 16.9375 45.015625 
L 16.9375 14.703125 
Q 16.9375 10.9375 17.40625 9.859375 
Q 17.875 8.796875 18.921875 8.15625 
Q 19.96875 7.515625 21.921875 7.515625 
Q 23.390625 7.515625 25.78125 7.859375 
z
" id="ArialMT-74"/>
     <path d="M 6.5 0 
L 6.5 51.859375 
L 14.40625 51.859375 
L 14.40625 44 
Q 17.4375 49.515625 20 51.265625 
Q 22.5625 53.03125 25.640625 53.03125 
Q 30.078125 53.03125 34.671875 50.203125 
L 31.640625 42.046875 
Q 28.421875 43.953125 25.203125 43.953125 
Q 22.3125 43.953125 20.015625 42.21875 
Q 17.71875 40.484375 16.75 37.40625 
Q 15.28125 32.71875 15.28125 27.15625 
L 15.28125 0 
z
" id="ArialMT-72"/>
     <path d="M 14.703125 0 
L 6.546875 0 
L 6.546875 71.578125 
L 15.328125 71.578125 
L 15.328125 46.046875 
Q 20.90625 53.03125 29.546875 53.03125 
Q 34.328125 53.03125 38.59375 51.09375 
Q 42.875 49.171875 45.625 45.671875 
Q 48.390625 42.1875 49.953125 37.25 
Q 51.515625 32.328125 51.515625 26.703125 
Q 51.515625 13.375 44.921875 6.09375 
Q 38.328125 -1.171875 29.109375 -1.171875 
Q 19.921875 -1.171875 14.703125 6.5 
z
M 14.59375 26.3125 
Q 14.59375 17 17.140625 12.84375 
Q 21.296875 6.0625 28.375 6.0625 
Q 34.125 6.0625 38.328125 11.0625 
Q 42.53125 16.0625 42.53125 25.984375 
Q 42.53125 36.140625 38.5 40.96875 
Q 34.46875 45.796875 28.765625 45.796875 
Q 23 45.796875 18.796875 40.796875 
Q 14.59375 35.796875 14.59375 26.3125 
z
" id="ArialMT-62"/>
     <path d="M 40.578125 0 
L 40.578125 7.625 
Q 34.515625 -1.171875 24.125 -1.171875 
Q 19.53125 -1.171875 15.546875 0.578125 
Q 11.578125 2.34375 9.640625 5 
Q 7.71875 7.671875 6.9375 11.53125 
Q 6.390625 14.109375 6.390625 19.734375 
L 6.390625 51.859375 
L 15.1875 51.859375 
L 15.1875 23.09375 
Q 15.1875 16.21875 15.71875 13.8125 
Q 16.546875 10.359375 19.234375 8.375 
Q 21.921875 6.390625 25.875 6.390625 
Q 29.828125 6.390625 33.296875 8.421875 
Q 36.765625 10.453125 38.203125 13.9375 
Q 39.65625 17.4375 39.65625 24.078125 
L 39.65625 51.859375 
L 48.4375 51.859375 
L 48.4375 0 
z
" id="ArialMT-75"/>
     <path d="M 3.328125 25.921875 
Q 3.328125 40.328125 11.328125 47.265625 
Q 18.015625 53.03125 27.640625 53.03125 
Q 38.328125 53.03125 45.109375 46.015625 
Q 51.90625 39.015625 51.90625 26.65625 
Q 51.90625 16.65625 48.90625 10.90625 
Q 45.90625 5.171875 40.15625 2 
Q 34.421875 -1.171875 27.640625 -1.171875 
Q 16.75 -1.171875 10.03125 5.8125 
Q 3.328125 12.796875 3.328125 25.921875 
z
M 12.359375 25.921875 
Q 12.359375 15.96875 16.703125 11.015625 
Q 21.046875 6.0625 27.640625 6.0625 
Q 34.1875 6.0625 38.53125 11.03125 
Q 42.875 16.015625 42.875 26.21875 
Q 42.875 35.84375 38.5 40.796875 
Q 34.125 45.75 27.640625 45.75 
Q 21.046875 45.75 16.703125 40.8125 
Q 12.359375 35.890625 12.359375 25.921875 
z
" id="ArialMT-6f"/>
     <path d="M 6.59375 0 
L 6.59375 51.859375 
L 14.5 51.859375 
L 14.5 44.484375 
Q 20.21875 53.03125 31 53.03125 
Q 35.6875 53.03125 39.625 51.34375 
Q 43.5625 49.65625 45.515625 46.921875 
Q 47.46875 44.1875 48.25 40.4375 
Q 48.734375 37.984375 48.734375 31.890625 
L 48.734375 0 
L 39.9375 0 
L 39.9375 31.546875 
Q 39.9375 36.921875 38.90625 39.578125 
Q 37.890625 42.234375 35.28125 43.8125 
Q 32.671875 45.40625 29.15625 45.40625 
Q 23.53125 45.40625 19.453125 41.84375 
Q 15.375 38.28125 15.375 28.328125 
L 15.375 0 
z
" id="ArialMT-6e"/>
     <path id="ArialMT-20"/>
     <path d="M 8.6875 0 
L 8.6875 45.015625 
L 0.921875 45.015625 
L 0.921875 51.859375 
L 8.6875 51.859375 
L 8.6875 57.375 
Q 8.6875 62.59375 9.625 65.140625 
Q 10.890625 68.5625 14.078125 70.671875 
Q 17.28125 72.796875 23.046875 72.796875 
Q 26.765625 72.796875 31.25 71.921875 
L 29.9375 64.265625 
Q 27.203125 64.75 24.75 64.75 
Q 20.75 64.75 19.09375 63.03125 
Q 17.4375 61.328125 17.4375 56.640625 
L 17.4375 51.859375 
L 27.546875 51.859375 
L 27.546875 45.015625 
L 17.4375 45.015625 
L 17.4375 0 
z
" id="ArialMT-66"/>
     <path d="M 4.828125 34.859375 
Q 4.828125 52.6875 14.390625 62.765625 
Q 23.96875 72.859375 39.109375 72.859375 
Q 49.03125 72.859375 56.984375 68.109375 
Q 64.9375 63.375 69.109375 54.90625 
Q 73.296875 46.4375 73.296875 35.6875 
Q 73.296875 24.8125 68.890625 16.21875 
Q 64.5 7.625 56.4375 3.203125 
Q 48.390625 -1.21875 39.0625 -1.21875 
Q 28.953125 -1.21875 20.984375 3.65625 
Q 13.03125 8.546875 8.921875 16.984375 
Q 4.828125 25.4375 4.828125 34.859375 
z
M 14.59375 34.71875 
Q 14.59375 21.78125 21.546875 14.328125 
Q 28.515625 6.890625 39.015625 6.890625 
Q 49.703125 6.890625 56.609375 14.40625 
Q 63.53125 21.921875 63.53125 35.75 
Q 63.53125 44.484375 60.578125 51 
Q 57.625 57.515625 51.921875 61.109375 
Q 46.234375 64.703125 39.15625 64.703125 
Q 29.109375 64.703125 21.84375 57.78125 
Q 14.59375 50.875 14.59375 34.71875 
z
" id="ArialMT-4f"/>
     <path d="M 6.59375 -19.875 
L 6.59375 51.859375 
L 14.59375 51.859375 
L 14.59375 45.125 
Q 17.4375 49.078125 21 51.046875 
Q 24.5625 53.03125 29.640625 53.03125 
Q 36.28125 53.03125 41.359375 49.609375 
Q 46.4375 46.1875 49.015625 39.953125 
Q 51.609375 33.734375 51.609375 26.3125 
Q 51.609375 18.359375 48.75 11.984375 
Q 45.90625 5.609375 40.453125 2.21875 
Q 35.015625 -1.171875 29 -1.171875 
Q 24.609375 -1.171875 21.109375 0.6875 
Q 17.625 2.546875 15.375 5.375 
L 15.375 -19.875 
z
M 14.546875 25.640625 
Q 14.546875 15.625 18.59375 10.84375 
Q 22.65625 6.0625 28.421875 6.0625 
Q 34.28125 6.0625 38.453125 11.015625 
Q 42.625 15.96875 42.625 26.375 
Q 42.625 36.28125 38.546875 41.203125 
Q 34.46875 46.140625 28.8125 46.140625 
Q 23.1875 46.140625 18.859375 40.890625 
Q 14.546875 35.640625 14.546875 25.640625 
z
" id="ArialMT-70"/>
     <path d="M 42.09375 16.703125 
L 51.171875 15.578125 
Q 49.03125 7.625 43.21875 3.21875 
Q 37.40625 -1.171875 28.375 -1.171875 
Q 17 -1.171875 10.328125 5.828125 
Q 3.65625 12.84375 3.65625 25.484375 
Q 3.65625 38.578125 10.390625 45.796875 
Q 17.140625 53.03125 27.875 53.03125 
Q 38.28125 53.03125 44.875 45.953125 
Q 51.46875 38.875 51.46875 26.03125 
Q 51.46875 25.25 51.421875 23.6875 
L 12.75 23.6875 
Q 13.234375 15.140625 17.578125 10.59375 
Q 21.921875 6.0625 28.421875 6.0625 
Q 33.25 6.0625 36.671875 8.59375 
Q 40.09375 11.140625 42.09375 16.703125 
z
M 13.234375 30.90625 
L 42.1875 30.90625 
Q 41.609375 37.453125 38.875 40.71875 
Q 34.671875 45.796875 27.984375 45.796875 
Q 21.921875 45.796875 17.796875 41.75 
Q 13.671875 37.703125 13.234375 30.90625 
z
" id="ArialMT-65"/>
     <path d="M 7.90625 0 
L 7.90625 71.578125 
L 59.671875 71.578125 
L 59.671875 63.140625 
L 17.390625 63.140625 
L 17.390625 41.21875 
L 56.984375 41.21875 
L 56.984375 32.8125 
L 17.390625 32.8125 
L 17.390625 8.453125 
L 61.328125 8.453125 
L 61.328125 0 
z
" id="ArialMT-45"/>
     <path d="M -0.140625 0 
L 27.34375 71.578125 
L 37.546875 71.578125 
L 66.84375 0 
L 56.0625 0 
L 47.703125 21.6875 
L 17.78125 21.6875 
L 9.90625 0 
z
M 20.515625 29.390625 
L 44.78125 29.390625 
L 37.3125 49.21875 
Q 33.890625 58.25 32.234375 64.0625 
Q 30.859375 57.171875 28.375 50.390625 
z
" id="ArialMT-41"/>
     <path d="M 7.859375 0 
L 7.859375 71.578125 
L 39.59375 71.578125 
Q 49.171875 71.578125 54.140625 69.640625 
Q 59.125 67.71875 62.109375 62.828125 
Q 65.09375 57.953125 65.09375 52.046875 
Q 65.09375 44.4375 60.15625 39.203125 
Q 55.21875 33.984375 44.921875 32.5625 
Q 48.6875 30.765625 50.640625 29 
Q 54.78125 25.203125 58.5 19.484375 
L 70.953125 0 
L 59.03125 0 
L 49.5625 14.890625 
Q 45.40625 21.34375 42.71875 24.75 
Q 40.046875 28.171875 37.921875 29.53125 
Q 35.796875 30.90625 33.59375 31.453125 
Q 31.984375 31.78125 28.328125 31.78125 
L 17.328125 31.78125 
L 17.328125 0 
z
M 17.328125 39.984375 
L 37.703125 39.984375 
Q 44.1875 39.984375 47.84375 41.328125 
Q 51.515625 42.671875 53.421875 45.625 
Q 55.328125 48.578125 55.328125 52.046875 
Q 55.328125 57.125 51.640625 60.390625 
Q 47.953125 63.671875 39.984375 63.671875 
L 17.328125 63.671875 
z
" id="ArialMT-52"/>
     <path d="M 9.03125 41.84375 
L 9.03125 51.859375 
L 19.046875 51.859375 
L 19.046875 41.84375 
z
M 9.03125 0 
L 9.03125 10.015625 
L 19.046875 10.015625 
L 19.046875 0 
z
" id="ArialMT-3a"/>
     <path d="M 40.4375 19 
L 49.078125 17.875 
Q 47.65625 8.9375 41.8125 3.875 
Q 35.984375 -1.171875 27.484375 -1.171875 
Q 16.84375 -1.171875 10.375 5.78125 
Q 3.90625 12.75 3.90625 25.734375 
Q 3.90625 34.125 6.6875 40.421875 
Q 9.46875 46.734375 15.15625 49.875 
Q 20.84375 53.03125 27.546875 53.03125 
Q 35.984375 53.03125 41.359375 48.75 
Q 46.734375 44.484375 48.25 36.625 
L 39.703125 35.296875 
Q 38.484375 40.53125 35.375 43.15625 
Q 32.28125 45.796875 27.875 45.796875 
Q 21.234375 45.796875 17.078125 41.03125 
Q 12.9375 36.28125 12.9375 25.984375 
Q 12.9375 15.53125 16.9375 10.796875 
Q 20.953125 6.0625 27.390625 6.0625 
Q 32.5625 6.0625 36.03125 9.234375 
Q 39.5 12.40625 40.4375 19 
z
" id="ArialMT-63"/>
     <path d="M -1.515625 -19.875 
L -1.515625 -13.53125 
L 56.734375 -13.53125 
L 56.734375 -19.875 
z
" id="ArialMT-5f"/>
     <path d="M 7.625 0 
L 7.625 71.578125 
L 17.328125 71.578125 
L 54.9375 15.375 
L 54.9375 71.578125 
L 64.015625 71.578125 
L 64.015625 0 
L 54.296875 0 
L 16.703125 56.25 
L 16.703125 0 
z
" id="ArialMT-4e"/>
     <path d="M 40.4375 6.390625 
Q 35.546875 2.25 31.03125 0.53125 
Q 26.515625 -1.171875 21.34375 -1.171875 
Q 12.796875 -1.171875 8.203125 3 
Q 3.609375 7.171875 3.609375 13.671875 
Q 3.609375 17.484375 5.34375 20.625 
Q 7.078125 23.78125 9.890625 25.6875 
Q 12.703125 27.59375 16.21875 28.5625 
Q 18.796875 29.25 24.03125 29.890625 
Q 34.671875 31.15625 39.703125 32.90625 
Q 39.75 34.71875 39.75 35.203125 
Q 39.75 40.578125 37.25 42.78125 
Q 33.890625 45.75 27.25 45.75 
Q 21.046875 45.75 18.09375 43.578125 
Q 15.140625 41.40625 13.71875 35.890625 
L 5.125 37.0625 
Q 6.296875 42.578125 8.984375 45.96875 
Q 11.671875 49.359375 16.75 51.1875 
Q 21.828125 53.03125 28.515625 53.03125 
Q 35.15625 53.03125 39.296875 51.46875 
Q 43.453125 49.90625 45.40625 47.53125 
Q 47.359375 45.171875 48.140625 41.546875 
Q 48.578125 39.3125 48.578125 33.453125 
L 48.578125 21.734375 
Q 48.578125 9.46875 49.140625 6.21875 
Q 49.703125 2.984375 51.375 0 
L 42.1875 0 
Q 40.828125 2.734375 40.4375 6.390625 
z
M 39.703125 26.03125 
Q 34.90625 24.078125 25.34375 22.703125 
Q 19.921875 21.921875 17.671875 20.9375 
Q 15.4375 19.96875 14.203125 18.09375 
Q 12.984375 16.21875 12.984375 13.921875 
Q 12.984375 10.40625 15.640625 8.0625 
Q 18.3125 5.71875 23.4375 5.71875 
Q 28.515625 5.71875 32.46875 7.9375 
Q 36.421875 10.15625 38.28125 14.015625 
Q 39.703125 17 39.703125 22.796875 
z
" id="ArialMT-61"/>
     <path d="M 6.390625 0 
L 6.390625 71.578125 
L 15.1875 71.578125 
L 15.1875 0 
z
" id="ArialMT-6c"/>
    </defs>
    <g style="fill:#262626;" transform="translate(105.696563 28.56)scale(0.12 -0.12)">
     <use xlink:href="#ArialMT-44"/>
     <use x="72.216797" xlink:href="#ArialMT-69"/>
     <use x="94.433594" xlink:href="#ArialMT-73"/>
     <use x="144.433594" xlink:href="#ArialMT-74"/>
     <use x="172.216797" xlink:href="#ArialMT-72"/>
     <use x="205.517578" xlink:href="#ArialMT-69"/>
     <use x="227.734375" xlink:href="#ArialMT-62"/>
     <use x="283.349609" xlink:href="#ArialMT-75"/>
     <use x="338.964844" xlink:href="#ArialMT-74"/>
     <use x="366.748047" xlink:href="#ArialMT-69"/>
     <use x="388.964844" xlink:href="#ArialMT-6f"/>
     <use x="444.580078" xlink:href="#ArialMT-6e"/>
     <use x="500.195312" xlink:href="#ArialMT-20"/>
     <use x="527.978516" xlink:href="#ArialMT-6f"/>
     <use x="583.59375" xlink:href="#ArialMT-66"/>
     <use x="611.376953" xlink:href="#ArialMT-20"/>
     <use x="639.160156" xlink:href="#ArialMT-4f"/>
     <use x="716.943359" xlink:href="#ArialMT-70"/>
     <use x="772.558594" xlink:href="#ArialMT-65"/>
     <use x="828.173828" xlink:href="#ArialMT-6e"/>
     <use x="883.789062" xlink:href="#ArialMT-45"/>
     <use x="950.488281" xlink:href="#ArialMT-41"/>
     <use x="1017.1875" xlink:href="#ArialMT-52"/>
     <use x="1089.404297" xlink:href="#ArialMT-3a"/>
     <use x="1117.1875" xlink:href="#ArialMT-20"/>
     <use x="1144.892578" xlink:href="#ArialMT-41"/>
     <use x="1211.591797" xlink:href="#ArialMT-66"/>
     <use x="1239.359375" xlink:href="#ArialMT-66"/>
     <use x="1267.142578" xlink:href="#ArialMT-65"/>
     <use x="1322.757812" xlink:href="#ArialMT-63"/>
     <use x="1372.757812" xlink:href="#ArialMT-74"/>
     <use x="1400.541016" xlink:href="#ArialMT-20"/>
     <use x="1428.246094" xlink:href="#ArialMT-41"/>
     <use x="1494.945312" xlink:href="#ArialMT-66"/>
     <use x="1522.712891" xlink:href="#ArialMT-66"/>
     <use x="1550.496094" xlink:href="#ArialMT-5f"/>
     <use x="1606.111328" xlink:href="#ArialMT-4e"/>
     <use x="1678.328125" xlink:href="#ArialMT-65"/>
     <use x="1733.943359" xlink:href="#ArialMT-75"/>
     <use x="1789.558594" xlink:href="#ArialMT-74"/>
     <use x="1817.341797" xlink:href="#ArialMT-72"/>
     <use x="1850.642578" xlink:href="#ArialMT-61"/>
     <use x="1906.257812" xlink:href="#ArialMT-6c"/>
    </g>
   </g>
   <g id="legend_1">
    <g id="patch_7">
     <path d="M 290.877656 59.053906 
L 381.1 59.053906 
Q 383.3 59.053906 383.3 56.853906 
L 383.3 42.26 
Q 383.3 40.06 381.1 40.06 
L 290.877656 40.06 
Q 288.677656 40.06 288.677656 42.26 
L 288.677656 56.853906 
Q 288.677656 59.053906 290.877656 59.053906 
z
" style="fill:#eaeaf2;opacity:0.8;stroke:#cccccc;stroke-linejoin:miter;"/>
    </g>
    <g id="line2d_15">
     <path d="M 293.077656 48.617656 
L 315.077656 48.617656 
" style="fill:none;stroke:#4c72b0;stroke-linecap:round;stroke-width:1.5;"/>
    </g>
    <g id="line2d_16"/>
    <g id="text_15">
     <!-- Aff_Neutral -->
     <g style="fill:#262626;" transform="translate(323.877656 52.467656)scale(0.11 -0.11)">
      <use xlink:href="#ArialMT-41"/>
      <use x="66.699219" xlink:href="#ArialMT-66"/>
      <use x="94.466797" xlink:href="#ArialMT-66"/>
      <use x="122.25" xlink:href="#ArialMT-5f"/>
      <use x="177.865234" xlink:href="#ArialMT-4e"/>
      <use x="250.082031" xlink:href="#ArialMT-65"/>
      <use x="305.697266" xlink:href="#ArialMT-75"/>
      <use x="361.3125" xlink:href="#ArialMT-74"/>
      <use x="389.095703" xlink:href="#ArialMT-72"/>
      <use x="422.396484" xlink:href="#ArialMT-61"/>
      <use x="478.011719" xlink:href="#ArialMT-6c"/>
     </g>
    </g>
   </g>
  </g>
 </g>
 <defs>
  <clipPath id="p2631cfa0f5">
   <rect height="217.44" width="334.8" x="54" y="34.56"/>
  </clipPath>
 </defs>
</svg>
